M48
; DRILL file {KiCad 7.0.9} date Wed Nov 22 23:33:43 2023
; FORMAT={-:-/ absolute / inch / decimal}
; #@! TF.CreationDate,2023-11-22T23:33:43+00:00
; #@! TF.GenerationSoftware,Kicad,Pcbnew,7.0.9
; #@! TF.FileFunction,Plated,1,2,PTH
FMAT,2
INCH
; #@! TA.AperFunction,Plated,PTH,ViaDrill
T1C0.0079
; #@! TA.AperFunction,Plated,PTH,ComponentDrill
T2C0.0354
; #@! TA.AperFunction,Plated,PTH,ComponentDrill
T3C0.0394
%
G90
G05
T1
X2.8544Y-2.9725
X2.9331Y-2.9685
X3.0394Y-3.063
X3.0472Y-2.378
X3.2913Y-2.5083
X3.3386Y-2.5197
X3.3937Y-2.3543
X3.5984Y-3.063
X3.6299Y-2.811
X3.7795Y-2.5433
X3.8031Y-3.2913
X3.9764Y-2.6535
X4.0315Y-2.937
T2
X4.3701Y-2.626
X4.3701Y-2.8228
X4.4685Y-2.7244
T3
X2.2579Y-3.251
X2.3579Y-3.251
X2.839Y-3.2608
X2.939Y-3.2608
X3.0811Y-3.2598
X3.1811Y-3.2598
X3.2811Y-3.2598
X3.3811Y-3.2598
X3.4811Y-3.2598
T0
M30
