%TF.GenerationSoftware,KiCad,Pcbnew,7.0.9*%
%TF.CreationDate,2023-11-22T23:33:49+00:00*%
%TF.ProjectId,signal_board,7369676e-616c-45f6-926f-6172642e6b69,rev?*%
%TF.SameCoordinates,Original*%
%TF.FileFunction,Copper,L2,Bot*%
%TF.FilePolarity,Positive*%
%FSLAX46Y46*%
G04 Gerber Fmt 4.6, Leading zero omitted, Abs format (unit mm)*
G04 Created by KiCad (PCBNEW 7.0.9) date 2023-11-22 23:33:49*
%MOMM*%
%LPD*%
G01*
G04 APERTURE LIST*
%TA.AperFunction,ComponentPad*%
%ADD10C,1.620000*%
%TD*%
%TA.AperFunction,ComponentPad*%
%ADD11R,1.700000X1.700000*%
%TD*%
%TA.AperFunction,ComponentPad*%
%ADD12O,1.700000X1.700000*%
%TD*%
%TA.AperFunction,ViaPad*%
%ADD13C,0.700000*%
%TD*%
%TA.AperFunction,Conductor*%
%ADD14C,0.508000*%
%TD*%
G04 APERTURE END LIST*
D10*
%TO.P,RV1,1,1*%
%TO.N,GND*%
X111000000Y-66700000D03*
%TO.P,RV1,2,2*%
%TO.N,Net-(C2-Pad1)*%
X113500000Y-69200000D03*
%TO.P,RV1,3,3*%
%TO.N,VCC*%
X111000000Y-71700000D03*
%TD*%
D11*
%TO.P,J3,1,Pin_1*%
%TO.N,Net-(J3-Pin_1)*%
X57350000Y-82575000D03*
D12*
%TO.P,J3,2,Pin_2*%
%TO.N,GND*%
X59890000Y-82575000D03*
%TD*%
%TO.P,J2,2,Pin_2*%
%TO.N,GND*%
X72110000Y-82825000D03*
D11*
%TO.P,J2,1,Pin_1*%
%TO.N,VCC*%
X74650000Y-82825000D03*
%TD*%
%TO.P,J1,1,Pin_1*%
%TO.N,Net-(CHIP1-RE3{slash}~MCLR{slash}VPP)*%
X88420000Y-82800000D03*
D12*
%TO.P,J1,2,Pin_2*%
%TO.N,VCC*%
X85880000Y-82800000D03*
%TO.P,J1,3,Pin_3*%
%TO.N,GND*%
X83340000Y-82800000D03*
%TO.P,J1,4,Pin_4*%
%TO.N,RB7*%
X80800000Y-82800000D03*
%TO.P,J1,5,Pin_5*%
%TO.N,RB6*%
X78260000Y-82800000D03*
%TD*%
D13*
%TO.N,GND*%
X101000000Y-67400000D03*
%TO.N,VCC*%
X74500000Y-75400000D03*
%TO.N,GND*%
X72502475Y-75502475D03*
%TO.N,VCC*%
X102400000Y-74600000D03*
X92200000Y-71400000D03*
%TO.N,GND*%
X96600000Y-83600000D03*
%TO.N,RB0*%
X91400000Y-77800000D03*
X77200000Y-77800000D03*
%TO.N,GND*%
X96000000Y-64600000D03*
%TO.N,VCC*%
X84800000Y-64000000D03*
%TO.N,GND*%
X83600000Y-63711500D03*
X77400000Y-60400000D03*
X86200000Y-59800000D03*
%TD*%
D14*
%TO.N,VCC*%
X84800000Y-65100000D02*
X84800000Y-64000000D01*
X74500000Y-75400000D02*
X84800000Y-65100000D01*
%TO.N,GND*%
X83600000Y-64404950D02*
X83600000Y-63711500D01*
X72502475Y-75502475D02*
X83600000Y-64404950D01*
%TO.N,VCC*%
X111000000Y-71700000D02*
X99700000Y-71700000D01*
X99600000Y-71800000D02*
X102400000Y-74600000D01*
X99200000Y-71400000D02*
X99600000Y-71800000D01*
X99700000Y-71700000D02*
X99600000Y-71800000D01*
X92200000Y-71400000D02*
X99200000Y-71400000D01*
%TO.N,GND*%
X95140000Y-85060000D02*
X96600000Y-83600000D01*
X83340000Y-85060000D02*
X95140000Y-85060000D01*
%TO.N,RB0*%
X77200000Y-77800000D02*
X91400000Y-77800000D01*
%TO.N,GND*%
X72600000Y-85600000D02*
X72110000Y-85110000D01*
X72110000Y-85110000D02*
X72110000Y-82825000D01*
X82800000Y-85600000D02*
X72600000Y-85600000D01*
X83340000Y-82800000D02*
X83340000Y-85060000D01*
X83340000Y-85060000D02*
X82800000Y-85600000D01*
%TD*%
%TA.AperFunction,Conductor*%
%TO.N,GND*%
G36*
X124943039Y-55019685D02*
G01*
X124988794Y-55072489D01*
X125000000Y-55124000D01*
X125000000Y-84876000D01*
X124980315Y-84943039D01*
X124927511Y-84988794D01*
X124876000Y-85000000D01*
X55124000Y-85000000D01*
X55056961Y-84980315D01*
X55011206Y-84927511D01*
X55000000Y-84876000D01*
X55000000Y-83444752D01*
X56299500Y-83444752D01*
X56311131Y-83503229D01*
X56311132Y-83503230D01*
X56355447Y-83569552D01*
X56421769Y-83613867D01*
X56421770Y-83613868D01*
X56480247Y-83625499D01*
X56480250Y-83625500D01*
X56480252Y-83625500D01*
X58219750Y-83625500D01*
X58219751Y-83625499D01*
X58234568Y-83622552D01*
X58278229Y-83613868D01*
X58278229Y-83613867D01*
X58278231Y-83613867D01*
X58344552Y-83569552D01*
X58388867Y-83503231D01*
X58388867Y-83503229D01*
X58388868Y-83503229D01*
X58397552Y-83459568D01*
X58400500Y-83444748D01*
X58400500Y-83134456D01*
X58420185Y-83067417D01*
X58472989Y-83021662D01*
X58542147Y-83011718D01*
X58605703Y-83040743D01*
X58636882Y-83082051D01*
X58716400Y-83252578D01*
X58851894Y-83446082D01*
X59018917Y-83613105D01*
X59212421Y-83748600D01*
X59426507Y-83848429D01*
X59426516Y-83848433D01*
X59640000Y-83905634D01*
X59640000Y-83010501D01*
X59747685Y-83059680D01*
X59854237Y-83075000D01*
X59925763Y-83075000D01*
X60032315Y-83059680D01*
X60140000Y-83010501D01*
X60140000Y-83905633D01*
X60353483Y-83848433D01*
X60353492Y-83848429D01*
X60567578Y-83748600D01*
X60761082Y-83613105D01*
X60928105Y-83446082D01*
X61063600Y-83252578D01*
X61146405Y-83075000D01*
X70779364Y-83075000D01*
X70836567Y-83288486D01*
X70836570Y-83288492D01*
X70936399Y-83502578D01*
X71071894Y-83696082D01*
X71238917Y-83863105D01*
X71432421Y-83998600D01*
X71646507Y-84098429D01*
X71646516Y-84098433D01*
X71860000Y-84155634D01*
X71860000Y-83260501D01*
X71967685Y-83309680D01*
X72074237Y-83325000D01*
X72145763Y-83325000D01*
X72252315Y-83309680D01*
X72360000Y-83260501D01*
X72360000Y-84155633D01*
X72573483Y-84098433D01*
X72573492Y-84098429D01*
X72787578Y-83998600D01*
X72981082Y-83863105D01*
X73148105Y-83696082D01*
X73283599Y-83502578D01*
X73363118Y-83332051D01*
X73409290Y-83279612D01*
X73476484Y-83260460D01*
X73543365Y-83280676D01*
X73588699Y-83333841D01*
X73599500Y-83384456D01*
X73599500Y-83694752D01*
X73611131Y-83753229D01*
X73611132Y-83753230D01*
X73655447Y-83819552D01*
X73721769Y-83863867D01*
X73721770Y-83863868D01*
X73780247Y-83875499D01*
X73780250Y-83875500D01*
X73780252Y-83875500D01*
X75519750Y-83875500D01*
X75519751Y-83875499D01*
X75534568Y-83872552D01*
X75578229Y-83863868D01*
X75578229Y-83863867D01*
X75578231Y-83863867D01*
X75644552Y-83819552D01*
X75688867Y-83753231D01*
X75688867Y-83753229D01*
X75688868Y-83753229D01*
X75697552Y-83709568D01*
X75700500Y-83694748D01*
X75700500Y-82800000D01*
X77204417Y-82800000D01*
X77224699Y-83005932D01*
X77254429Y-83103939D01*
X77284768Y-83203954D01*
X77382315Y-83386450D01*
X77382317Y-83386452D01*
X77513589Y-83546410D01*
X77595787Y-83613867D01*
X77673550Y-83677685D01*
X77856046Y-83775232D01*
X78054066Y-83835300D01*
X78054065Y-83835300D01*
X78072529Y-83837118D01*
X78260000Y-83855583D01*
X78465934Y-83835300D01*
X78663954Y-83775232D01*
X78846450Y-83677685D01*
X79006410Y-83546410D01*
X79137685Y-83386450D01*
X79235232Y-83203954D01*
X79295300Y-83005934D01*
X79315583Y-82800000D01*
X79744417Y-82800000D01*
X79764699Y-83005932D01*
X79794429Y-83103939D01*
X79824768Y-83203954D01*
X79922315Y-83386450D01*
X79922317Y-83386452D01*
X80053589Y-83546410D01*
X80135787Y-83613867D01*
X80213550Y-83677685D01*
X80396046Y-83775232D01*
X80594066Y-83835300D01*
X80594065Y-83835300D01*
X80612529Y-83837118D01*
X80800000Y-83855583D01*
X81005934Y-83835300D01*
X81203954Y-83775232D01*
X81386450Y-83677685D01*
X81546410Y-83546410D01*
X81677685Y-83386450D01*
X81775232Y-83203954D01*
X81795406Y-83137446D01*
X81833702Y-83079010D01*
X81897514Y-83050553D01*
X81966581Y-83061112D01*
X82018975Y-83107336D01*
X82033841Y-83141349D01*
X82066567Y-83263486D01*
X82066570Y-83263492D01*
X82166399Y-83477578D01*
X82301894Y-83671082D01*
X82468917Y-83838105D01*
X82662421Y-83973600D01*
X82876507Y-84073429D01*
X82876516Y-84073433D01*
X83090000Y-84130634D01*
X83090000Y-83235501D01*
X83197685Y-83284680D01*
X83304237Y-83300000D01*
X83375763Y-83300000D01*
X83482315Y-83284680D01*
X83590000Y-83235501D01*
X83590000Y-84130633D01*
X83803483Y-84073433D01*
X83803492Y-84073429D01*
X84017578Y-83973600D01*
X84211082Y-83838105D01*
X84378105Y-83671082D01*
X84513600Y-83477578D01*
X84613429Y-83263492D01*
X84613433Y-83263483D01*
X84646158Y-83141350D01*
X84682522Y-83081690D01*
X84745369Y-83051160D01*
X84814745Y-83059454D01*
X84868623Y-83103939D01*
X84884593Y-83137447D01*
X84904768Y-83203954D01*
X85002315Y-83386450D01*
X85002317Y-83386452D01*
X85133589Y-83546410D01*
X85215787Y-83613867D01*
X85293550Y-83677685D01*
X85476046Y-83775232D01*
X85674066Y-83835300D01*
X85674065Y-83835300D01*
X85692529Y-83837118D01*
X85880000Y-83855583D01*
X86085934Y-83835300D01*
X86283954Y-83775232D01*
X86466450Y-83677685D01*
X86476116Y-83669752D01*
X87369500Y-83669752D01*
X87381131Y-83728229D01*
X87381132Y-83728230D01*
X87425447Y-83794552D01*
X87491769Y-83838867D01*
X87491770Y-83838868D01*
X87550247Y-83850499D01*
X87550250Y-83850500D01*
X87550252Y-83850500D01*
X89289750Y-83850500D01*
X89289751Y-83850499D01*
X89304568Y-83847552D01*
X89348229Y-83838868D01*
X89348229Y-83838867D01*
X89348231Y-83838867D01*
X89414552Y-83794552D01*
X89458867Y-83728231D01*
X89458867Y-83728229D01*
X89458868Y-83728229D01*
X89468922Y-83677682D01*
X89470500Y-83669748D01*
X89470500Y-81930252D01*
X89470500Y-81930249D01*
X89470499Y-81930247D01*
X89458868Y-81871770D01*
X89458867Y-81871769D01*
X89414552Y-81805447D01*
X89348230Y-81761132D01*
X89348229Y-81761131D01*
X89289752Y-81749500D01*
X89289748Y-81749500D01*
X87550252Y-81749500D01*
X87550247Y-81749500D01*
X87491770Y-81761131D01*
X87491769Y-81761132D01*
X87425447Y-81805447D01*
X87381132Y-81871769D01*
X87381131Y-81871770D01*
X87369500Y-81930247D01*
X87369500Y-83669752D01*
X86476116Y-83669752D01*
X86626410Y-83546410D01*
X86757685Y-83386450D01*
X86855232Y-83203954D01*
X86915300Y-83005934D01*
X86935583Y-82800000D01*
X86915300Y-82594066D01*
X86855232Y-82396046D01*
X86757685Y-82213550D01*
X86681229Y-82120387D01*
X86626410Y-82053589D01*
X86476121Y-81930252D01*
X86466450Y-81922315D01*
X86283954Y-81824768D01*
X86085934Y-81764700D01*
X86085932Y-81764699D01*
X86085934Y-81764699D01*
X85880000Y-81744417D01*
X85674067Y-81764699D01*
X85476043Y-81824769D01*
X85388114Y-81871769D01*
X85293550Y-81922315D01*
X85293548Y-81922316D01*
X85293547Y-81922317D01*
X85133589Y-82053589D01*
X85002317Y-82213547D01*
X84904767Y-82396046D01*
X84884593Y-82462552D01*
X84846296Y-82520990D01*
X84782483Y-82549447D01*
X84713416Y-82538886D01*
X84661023Y-82492661D01*
X84646158Y-82458649D01*
X84613433Y-82336516D01*
X84613429Y-82336507D01*
X84513600Y-82122422D01*
X84513599Y-82122420D01*
X84378113Y-81928926D01*
X84378108Y-81928920D01*
X84211082Y-81761894D01*
X84017578Y-81626399D01*
X83803492Y-81526570D01*
X83803486Y-81526567D01*
X83590000Y-81469364D01*
X83590000Y-82364498D01*
X83482315Y-82315320D01*
X83375763Y-82300000D01*
X83304237Y-82300000D01*
X83197685Y-82315320D01*
X83090000Y-82364498D01*
X83090000Y-81469364D01*
X83089999Y-81469364D01*
X82876513Y-81526567D01*
X82876507Y-81526570D01*
X82662422Y-81626399D01*
X82662420Y-81626400D01*
X82468926Y-81761886D01*
X82468920Y-81761891D01*
X82301891Y-81928920D01*
X82301886Y-81928926D01*
X82166400Y-82122420D01*
X82166399Y-82122422D01*
X82066570Y-82336507D01*
X82066567Y-82336514D01*
X82033841Y-82458650D01*
X81997476Y-82518310D01*
X81934629Y-82548839D01*
X81865253Y-82540544D01*
X81811375Y-82496059D01*
X81795406Y-82462552D01*
X81775232Y-82396046D01*
X81677685Y-82213550D01*
X81601229Y-82120387D01*
X81546410Y-82053589D01*
X81396121Y-81930252D01*
X81386450Y-81922315D01*
X81203954Y-81824768D01*
X81005934Y-81764700D01*
X81005932Y-81764699D01*
X81005934Y-81764699D01*
X80800000Y-81744417D01*
X80594067Y-81764699D01*
X80396043Y-81824769D01*
X80308114Y-81871769D01*
X80213550Y-81922315D01*
X80213548Y-81922316D01*
X80213547Y-81922317D01*
X80053589Y-82053589D01*
X79922317Y-82213547D01*
X79824769Y-82396043D01*
X79764699Y-82594067D01*
X79744417Y-82800000D01*
X79315583Y-82800000D01*
X79295300Y-82594066D01*
X79235232Y-82396046D01*
X79137685Y-82213550D01*
X79061229Y-82120387D01*
X79006410Y-82053589D01*
X78856121Y-81930252D01*
X78846450Y-81922315D01*
X78663954Y-81824768D01*
X78465934Y-81764700D01*
X78465932Y-81764699D01*
X78465934Y-81764699D01*
X78260000Y-81744417D01*
X78054067Y-81764699D01*
X77856043Y-81824769D01*
X77768114Y-81871769D01*
X77673550Y-81922315D01*
X77673548Y-81922316D01*
X77673547Y-81922317D01*
X77513589Y-82053589D01*
X77382317Y-82213547D01*
X77284769Y-82396043D01*
X77224699Y-82594067D01*
X77204417Y-82800000D01*
X75700500Y-82800000D01*
X75700500Y-81955252D01*
X75700500Y-81955249D01*
X75700499Y-81955247D01*
X75688868Y-81896770D01*
X75688867Y-81896769D01*
X75644552Y-81830447D01*
X75578230Y-81786132D01*
X75578229Y-81786131D01*
X75519752Y-81774500D01*
X75519748Y-81774500D01*
X73780252Y-81774500D01*
X73780247Y-81774500D01*
X73721770Y-81786131D01*
X73721769Y-81786132D01*
X73655447Y-81830447D01*
X73611132Y-81896769D01*
X73611131Y-81896770D01*
X73599500Y-81955247D01*
X73599500Y-82265543D01*
X73579815Y-82332582D01*
X73527011Y-82378337D01*
X73457853Y-82388281D01*
X73394297Y-82359256D01*
X73363118Y-82317948D01*
X73283600Y-82147422D01*
X73283599Y-82147420D01*
X73148113Y-81953926D01*
X73148108Y-81953920D01*
X72981082Y-81786894D01*
X72787578Y-81651399D01*
X72573492Y-81551570D01*
X72573486Y-81551567D01*
X72360000Y-81494364D01*
X72360000Y-82389498D01*
X72252315Y-82340320D01*
X72145763Y-82325000D01*
X72074237Y-82325000D01*
X71967685Y-82340320D01*
X71860000Y-82389498D01*
X71860000Y-81494364D01*
X71859999Y-81494364D01*
X71646513Y-81551567D01*
X71646507Y-81551570D01*
X71432422Y-81651399D01*
X71432420Y-81651400D01*
X71238926Y-81786886D01*
X71238920Y-81786891D01*
X71071891Y-81953920D01*
X71071886Y-81953926D01*
X70936400Y-82147420D01*
X70936399Y-82147422D01*
X70836570Y-82361507D01*
X70836567Y-82361513D01*
X70779364Y-82574999D01*
X70779364Y-82575000D01*
X71676314Y-82575000D01*
X71650507Y-82615156D01*
X71610000Y-82753111D01*
X71610000Y-82896889D01*
X71650507Y-83034844D01*
X71676314Y-83075000D01*
X70779364Y-83075000D01*
X61146405Y-83075000D01*
X61163429Y-83038492D01*
X61163432Y-83038486D01*
X61220636Y-82825000D01*
X60323686Y-82825000D01*
X60349493Y-82784844D01*
X60390000Y-82646889D01*
X60390000Y-82503111D01*
X60349493Y-82365156D01*
X60323686Y-82325000D01*
X61220636Y-82325000D01*
X61220635Y-82324999D01*
X61163432Y-82111513D01*
X61163429Y-82111507D01*
X61063600Y-81897422D01*
X61063599Y-81897420D01*
X60928113Y-81703926D01*
X60928108Y-81703920D01*
X60761082Y-81536894D01*
X60567578Y-81401399D01*
X60353492Y-81301570D01*
X60353486Y-81301567D01*
X60140000Y-81244364D01*
X60140000Y-82139498D01*
X60032315Y-82090320D01*
X59925763Y-82075000D01*
X59854237Y-82075000D01*
X59747685Y-82090320D01*
X59640000Y-82139498D01*
X59640000Y-81244364D01*
X59639999Y-81244364D01*
X59426513Y-81301567D01*
X59426507Y-81301570D01*
X59212422Y-81401399D01*
X59212420Y-81401400D01*
X59018926Y-81536886D01*
X59018920Y-81536891D01*
X58851891Y-81703920D01*
X58851886Y-81703926D01*
X58716400Y-81897420D01*
X58716399Y-81897422D01*
X58636882Y-82067948D01*
X58590710Y-82120387D01*
X58523516Y-82139539D01*
X58456635Y-82119323D01*
X58411300Y-82066158D01*
X58400500Y-82015543D01*
X58400500Y-81705249D01*
X58400499Y-81705247D01*
X58388868Y-81646770D01*
X58388867Y-81646769D01*
X58344552Y-81580447D01*
X58278230Y-81536132D01*
X58278229Y-81536131D01*
X58219752Y-81524500D01*
X58219748Y-81524500D01*
X56480252Y-81524500D01*
X56480247Y-81524500D01*
X56421770Y-81536131D01*
X56421769Y-81536132D01*
X56355447Y-81580447D01*
X56311132Y-81646769D01*
X56311131Y-81646770D01*
X56299500Y-81705247D01*
X56299500Y-83444752D01*
X55000000Y-83444752D01*
X55000000Y-77800000D01*
X76644750Y-77800000D01*
X76663670Y-77943708D01*
X76663671Y-77943712D01*
X76719137Y-78077622D01*
X76719138Y-78077624D01*
X76719139Y-78077625D01*
X76807379Y-78192621D01*
X76922375Y-78280861D01*
X77056291Y-78336330D01*
X77183280Y-78353048D01*
X77199999Y-78355250D01*
X77200000Y-78355250D01*
X77200001Y-78355250D01*
X77214977Y-78353278D01*
X77343709Y-78336330D01*
X77477625Y-78280861D01*
X77478582Y-78280126D01*
X77479535Y-78279757D01*
X77484664Y-78276797D01*
X77485125Y-78277596D01*
X77543749Y-78254930D01*
X77554071Y-78254500D01*
X91045929Y-78254500D01*
X91112968Y-78274185D01*
X91121412Y-78280122D01*
X91122039Y-78280603D01*
X91122376Y-78280862D01*
X91206818Y-78315838D01*
X91256291Y-78336330D01*
X91383280Y-78353048D01*
X91399999Y-78355250D01*
X91400000Y-78355250D01*
X91400001Y-78355250D01*
X91414977Y-78353278D01*
X91543709Y-78336330D01*
X91677625Y-78280861D01*
X91792621Y-78192621D01*
X91880861Y-78077625D01*
X91936330Y-77943709D01*
X91955250Y-77800000D01*
X91936330Y-77656291D01*
X91880861Y-77522375D01*
X91792621Y-77407379D01*
X91677625Y-77319139D01*
X91677624Y-77319138D01*
X91677622Y-77319137D01*
X91543712Y-77263671D01*
X91543710Y-77263670D01*
X91543709Y-77263670D01*
X91471854Y-77254210D01*
X91400001Y-77244750D01*
X91399999Y-77244750D01*
X91256291Y-77263670D01*
X91256287Y-77263671D01*
X91122376Y-77319137D01*
X91121665Y-77319683D01*
X91121417Y-77319873D01*
X91120464Y-77320242D01*
X91115336Y-77323203D01*
X91114874Y-77322403D01*
X91056251Y-77345070D01*
X91045929Y-77345500D01*
X77554071Y-77345500D01*
X77487032Y-77325815D01*
X77478587Y-77319877D01*
X77478121Y-77319520D01*
X77477623Y-77319137D01*
X77343712Y-77263671D01*
X77343710Y-77263670D01*
X77343709Y-77263670D01*
X77271854Y-77254210D01*
X77200001Y-77244750D01*
X77199999Y-77244750D01*
X77056291Y-77263670D01*
X77056287Y-77263671D01*
X76922377Y-77319137D01*
X76807379Y-77407379D01*
X76719137Y-77522377D01*
X76663671Y-77656287D01*
X76663670Y-77656291D01*
X76644750Y-77799999D01*
X76644750Y-77800000D01*
X55000000Y-77800000D01*
X55000000Y-75400000D01*
X73944750Y-75400000D01*
X73963513Y-75542520D01*
X73963670Y-75543708D01*
X73963671Y-75543712D01*
X74019137Y-75677622D01*
X74019138Y-75677624D01*
X74019139Y-75677625D01*
X74107379Y-75792621D01*
X74222375Y-75880861D01*
X74356291Y-75936330D01*
X74483280Y-75953048D01*
X74499999Y-75955250D01*
X74500000Y-75955250D01*
X74500001Y-75955250D01*
X74514977Y-75953278D01*
X74643709Y-75936330D01*
X74777625Y-75880861D01*
X74892621Y-75792621D01*
X74980861Y-75677625D01*
X75036330Y-75543709D01*
X75036487Y-75542515D01*
X75036900Y-75541581D01*
X75038434Y-75535857D01*
X75039326Y-75536096D01*
X75064746Y-75478621D01*
X75071733Y-75471025D01*
X79142758Y-71400000D01*
X91644750Y-71400000D01*
X91663670Y-71543708D01*
X91663671Y-71543712D01*
X91719137Y-71677622D01*
X91719138Y-71677624D01*
X91719139Y-71677625D01*
X91807379Y-71792621D01*
X91922375Y-71880861D01*
X92056291Y-71936330D01*
X92183280Y-71953048D01*
X92199999Y-71955250D01*
X92200000Y-71955250D01*
X92200001Y-71955250D01*
X92214977Y-71953278D01*
X92343709Y-71936330D01*
X92477625Y-71880861D01*
X92478582Y-71880126D01*
X92479535Y-71879757D01*
X92484664Y-71876797D01*
X92485125Y-71877596D01*
X92543749Y-71854930D01*
X92554071Y-71854500D01*
X98960378Y-71854500D01*
X99027417Y-71874185D01*
X99048059Y-71890819D01*
X99232527Y-72075287D01*
X99249836Y-72096990D01*
X99251611Y-72099814D01*
X99288890Y-72131895D01*
X99292291Y-72135051D01*
X101828254Y-74671014D01*
X101861739Y-74732337D01*
X101863512Y-74742506D01*
X101863670Y-74743709D01*
X101863671Y-74743712D01*
X101919137Y-74877622D01*
X101919138Y-74877624D01*
X101919139Y-74877625D01*
X102007379Y-74992621D01*
X102122375Y-75080861D01*
X102256291Y-75136330D01*
X102383280Y-75153048D01*
X102399999Y-75155250D01*
X102400000Y-75155250D01*
X102400001Y-75155250D01*
X102414977Y-75153278D01*
X102543709Y-75136330D01*
X102677625Y-75080861D01*
X102792621Y-74992621D01*
X102880861Y-74877625D01*
X102936330Y-74743709D01*
X102955250Y-74600000D01*
X102936330Y-74456291D01*
X102880861Y-74322375D01*
X102792621Y-74207379D01*
X102677625Y-74119139D01*
X102677624Y-74119138D01*
X102677622Y-74119137D01*
X102543711Y-74063670D01*
X102543699Y-74063667D01*
X102542496Y-74063509D01*
X102541556Y-74063093D01*
X102535857Y-74061566D01*
X102536095Y-74060676D01*
X102478603Y-74035236D01*
X102471014Y-74028253D01*
X100808942Y-72366181D01*
X100775457Y-72304858D01*
X100780441Y-72235166D01*
X100822313Y-72179233D01*
X100887777Y-72154816D01*
X100896623Y-72154500D01*
X110022819Y-72154500D01*
X110089858Y-72174185D01*
X110132178Y-72220048D01*
X110155733Y-72264118D01*
X110155735Y-72264121D01*
X110282011Y-72417988D01*
X110435878Y-72544264D01*
X110435885Y-72544268D01*
X110611425Y-72638096D01*
X110611427Y-72638097D01*
X110801907Y-72695879D01*
X111000000Y-72715389D01*
X111198093Y-72695879D01*
X111388573Y-72638097D01*
X111564120Y-72544265D01*
X111717988Y-72417988D01*
X111844265Y-72264120D01*
X111938097Y-72088573D01*
X111995879Y-71898093D01*
X112015389Y-71700000D01*
X111995879Y-71501907D01*
X111938097Y-71311427D01*
X111902858Y-71245500D01*
X111844268Y-71135885D01*
X111844264Y-71135878D01*
X111717988Y-70982011D01*
X111564121Y-70855735D01*
X111564114Y-70855731D01*
X111388574Y-70761903D01*
X111198095Y-70704121D01*
X111000000Y-70684611D01*
X110801904Y-70704121D01*
X110611425Y-70761903D01*
X110435885Y-70855731D01*
X110435878Y-70855735D01*
X110282011Y-70982011D01*
X110155735Y-71135878D01*
X110155733Y-71135881D01*
X110132178Y-71179952D01*
X110083216Y-71229797D01*
X110022819Y-71245500D01*
X99739624Y-71245500D01*
X99672585Y-71225815D01*
X99651943Y-71209182D01*
X99541893Y-71099133D01*
X99537256Y-71093943D01*
X99512634Y-71063067D01*
X99512632Y-71063066D01*
X99512631Y-71063064D01*
X99463050Y-71029260D01*
X99463049Y-71029259D01*
X99414773Y-70993630D01*
X99407165Y-70989610D01*
X99399430Y-70985885D01*
X99399428Y-70985884D01*
X99342084Y-70968196D01*
X99285447Y-70948377D01*
X99277031Y-70946784D01*
X99268506Y-70945500D01*
X99268505Y-70945500D01*
X99208509Y-70945500D01*
X99148538Y-70943255D01*
X99139305Y-70944296D01*
X99139212Y-70943475D01*
X99123838Y-70945500D01*
X92554071Y-70945500D01*
X92487032Y-70925815D01*
X92478587Y-70919877D01*
X92478121Y-70919520D01*
X92477623Y-70919137D01*
X92343712Y-70863671D01*
X92343710Y-70863670D01*
X92343709Y-70863670D01*
X92271854Y-70854210D01*
X92200001Y-70844750D01*
X92199999Y-70844750D01*
X92056291Y-70863670D01*
X92056287Y-70863671D01*
X91922377Y-70919137D01*
X91807379Y-71007379D01*
X91719137Y-71122377D01*
X91663671Y-71256287D01*
X91663670Y-71256291D01*
X91644750Y-71399999D01*
X91644750Y-71400000D01*
X79142758Y-71400000D01*
X81342758Y-69200000D01*
X112484611Y-69200000D01*
X112504121Y-69398095D01*
X112561903Y-69588574D01*
X112655731Y-69764114D01*
X112655735Y-69764121D01*
X112782011Y-69917988D01*
X112935878Y-70044264D01*
X112935885Y-70044268D01*
X113111425Y-70138096D01*
X113111427Y-70138097D01*
X113301907Y-70195879D01*
X113500000Y-70215389D01*
X113698093Y-70195879D01*
X113888573Y-70138097D01*
X114064120Y-70044265D01*
X114217988Y-69917988D01*
X114344265Y-69764120D01*
X114438097Y-69588573D01*
X114495879Y-69398093D01*
X114515389Y-69200000D01*
X114495879Y-69001907D01*
X114438097Y-68811427D01*
X114344265Y-68635880D01*
X114344264Y-68635878D01*
X114217988Y-68482011D01*
X114064121Y-68355735D01*
X114064114Y-68355731D01*
X113888574Y-68261903D01*
X113698095Y-68204121D01*
X113500000Y-68184611D01*
X113301904Y-68204121D01*
X113111425Y-68261903D01*
X112935885Y-68355731D01*
X112935878Y-68355735D01*
X112782011Y-68482011D01*
X112655735Y-68635878D01*
X112655731Y-68635885D01*
X112561903Y-68811425D01*
X112504121Y-69001904D01*
X112484611Y-69200000D01*
X81342758Y-69200000D01*
X83842758Y-66700000D01*
X109684996Y-66700000D01*
X109704973Y-66928343D01*
X109704975Y-66928353D01*
X109764297Y-67149750D01*
X109764301Y-67149759D01*
X109861172Y-67357500D01*
X109861173Y-67357502D01*
X109913793Y-67432651D01*
X109913794Y-67432652D01*
X110555549Y-66790896D01*
X110556327Y-66801265D01*
X110605887Y-66927541D01*
X110690465Y-67033599D01*
X110802547Y-67110016D01*
X110910299Y-67143253D01*
X110267346Y-67786205D01*
X110342502Y-67838828D01*
X110550240Y-67935698D01*
X110550249Y-67935702D01*
X110771646Y-67995024D01*
X110771656Y-67995026D01*
X110999999Y-68015004D01*
X111000001Y-68015004D01*
X111228343Y-67995026D01*
X111228353Y-67995024D01*
X111449750Y-67935702D01*
X111449759Y-67935698D01*
X111657499Y-67838828D01*
X111732652Y-67786205D01*
X111088232Y-67141784D01*
X111134138Y-67134865D01*
X111256357Y-67076007D01*
X111355798Y-66983740D01*
X111423625Y-66866260D01*
X111441499Y-66787946D01*
X112086205Y-67432652D01*
X112138828Y-67357499D01*
X112235698Y-67149759D01*
X112235702Y-67149750D01*
X112295024Y-66928353D01*
X112295026Y-66928343D01*
X112315004Y-66700000D01*
X112315004Y-66699999D01*
X112295026Y-66471656D01*
X112295024Y-66471646D01*
X112235702Y-66250249D01*
X112235698Y-66250240D01*
X112138828Y-66042502D01*
X112086204Y-65967346D01*
X111444449Y-66609101D01*
X111443673Y-66598735D01*
X111394113Y-66472459D01*
X111309535Y-66366401D01*
X111197453Y-66289984D01*
X111089700Y-66256746D01*
X111732652Y-65613794D01*
X111732651Y-65613793D01*
X111657502Y-65561173D01*
X111657500Y-65561172D01*
X111449759Y-65464301D01*
X111449750Y-65464297D01*
X111228353Y-65404975D01*
X111228343Y-65404973D01*
X111000001Y-65384996D01*
X110999999Y-65384996D01*
X110771656Y-65404973D01*
X110771646Y-65404975D01*
X110550249Y-65464297D01*
X110550240Y-65464301D01*
X110342495Y-65561174D01*
X110267346Y-65613792D01*
X110911769Y-66258215D01*
X110865862Y-66265135D01*
X110743643Y-66323993D01*
X110644202Y-66416260D01*
X110576375Y-66533740D01*
X110558500Y-66612054D01*
X109913792Y-65967346D01*
X109861174Y-66042495D01*
X109764301Y-66250240D01*
X109764297Y-66250249D01*
X109704975Y-66471646D01*
X109704973Y-66471656D01*
X109684996Y-66699999D01*
X109684996Y-66700000D01*
X83842758Y-66700000D01*
X85100874Y-65441884D01*
X85106046Y-65437264D01*
X85106654Y-65436778D01*
X85136936Y-65412631D01*
X85170739Y-65363049D01*
X85206370Y-65314773D01*
X85206372Y-65314764D01*
X85210380Y-65307183D01*
X85214112Y-65299432D01*
X85214116Y-65299428D01*
X85231800Y-65242095D01*
X85251621Y-65185451D01*
X85251621Y-65185446D01*
X85253217Y-65177014D01*
X85254500Y-65168504D01*
X85254500Y-65108508D01*
X85256744Y-65048538D01*
X85255704Y-65039305D01*
X85256523Y-65039212D01*
X85254500Y-65023837D01*
X85254500Y-64354071D01*
X85274185Y-64287032D01*
X85280127Y-64278581D01*
X85280861Y-64277625D01*
X85336330Y-64143709D01*
X85355250Y-64000000D01*
X85336330Y-63856291D01*
X85280861Y-63722375D01*
X85192621Y-63607379D01*
X85077625Y-63519139D01*
X85077624Y-63519138D01*
X85077622Y-63519137D01*
X84943712Y-63463671D01*
X84943710Y-63463670D01*
X84943709Y-63463670D01*
X84871854Y-63454210D01*
X84800001Y-63444750D01*
X84799999Y-63444750D01*
X84656291Y-63463670D01*
X84656287Y-63463671D01*
X84522377Y-63519137D01*
X84407379Y-63607379D01*
X84319137Y-63722377D01*
X84263671Y-63856287D01*
X84263670Y-63856291D01*
X84244750Y-63999999D01*
X84244750Y-64000000D01*
X84263670Y-64143708D01*
X84263671Y-64143712D01*
X84319137Y-64277623D01*
X84319873Y-64278581D01*
X84320242Y-64279535D01*
X84323203Y-64284664D01*
X84322403Y-64285125D01*
X84345070Y-64343749D01*
X84345500Y-64354071D01*
X84345500Y-64860376D01*
X84325815Y-64927415D01*
X84309181Y-64948057D01*
X74428983Y-74828254D01*
X74367660Y-74861739D01*
X74357495Y-74863511D01*
X74356292Y-74863669D01*
X74356291Y-74863669D01*
X74222377Y-74919137D01*
X74107379Y-75007379D01*
X74019137Y-75122377D01*
X73963671Y-75256287D01*
X73963670Y-75256291D01*
X73944750Y-75400000D01*
X55000000Y-75400000D01*
X55000000Y-55124000D01*
X55019685Y-55056961D01*
X55072489Y-55011206D01*
X55124000Y-55000000D01*
X124876000Y-55000000D01*
X124943039Y-55019685D01*
G37*
%TD.AperFunction*%
%TD*%
M02*
