%TF.GenerationSoftware,KiCad,Pcbnew,7.0.9*%
%TF.CreationDate,2023-11-22T23:33:49+00:00*%
%TF.ProjectId,signal_board,7369676e-616c-45f6-926f-6172642e6b69,rev?*%
%TF.SameCoordinates,Original*%
%TF.FileFunction,Legend,Top*%
%TF.FilePolarity,Positive*%
%FSLAX46Y46*%
G04 Gerber Fmt 4.6, Leading zero omitted, Abs format (unit mm)*
G04 Created by KiCad (PCBNEW 7.0.9) date 2023-11-22 23:33:49*
%MOMM*%
%LPD*%
G01*
G04 APERTURE LIST*
%ADD10C,0.150000*%
%ADD11C,0.120000*%
G04 APERTURE END LIST*
D10*
X81123809Y-54628628D02*
X81123809Y-55104819D01*
X80790476Y-54104819D02*
X81123809Y-54628628D01*
X81123809Y-54628628D02*
X81457142Y-54104819D01*
X81742857Y-54200057D02*
X81790476Y-54152438D01*
X81790476Y-54152438D02*
X81885714Y-54104819D01*
X81885714Y-54104819D02*
X82123809Y-54104819D01*
X82123809Y-54104819D02*
X82219047Y-54152438D01*
X82219047Y-54152438D02*
X82266666Y-54200057D01*
X82266666Y-54200057D02*
X82314285Y-54295295D01*
X82314285Y-54295295D02*
X82314285Y-54390533D01*
X82314285Y-54390533D02*
X82266666Y-54533390D01*
X82266666Y-54533390D02*
X81695238Y-55104819D01*
X81695238Y-55104819D02*
X82314285Y-55104819D01*
X96723809Y-62728628D02*
X96723809Y-63204819D01*
X96390476Y-62204819D02*
X96723809Y-62728628D01*
X96723809Y-62728628D02*
X97057142Y-62204819D01*
X97914285Y-63204819D02*
X97342857Y-63204819D01*
X97628571Y-63204819D02*
X97628571Y-62204819D01*
X97628571Y-62204819D02*
X97533333Y-62347676D01*
X97533333Y-62347676D02*
X97438095Y-62442914D01*
X97438095Y-62442914D02*
X97342857Y-62490533D01*
X101066667Y-78332200D02*
X101209524Y-78379819D01*
X101209524Y-78379819D02*
X101447619Y-78379819D01*
X101447619Y-78379819D02*
X101542857Y-78332200D01*
X101542857Y-78332200D02*
X101590476Y-78284580D01*
X101590476Y-78284580D02*
X101638095Y-78189342D01*
X101638095Y-78189342D02*
X101638095Y-78094104D01*
X101638095Y-78094104D02*
X101590476Y-77998866D01*
X101590476Y-77998866D02*
X101542857Y-77951247D01*
X101542857Y-77951247D02*
X101447619Y-77903628D01*
X101447619Y-77903628D02*
X101257143Y-77856009D01*
X101257143Y-77856009D02*
X101161905Y-77808390D01*
X101161905Y-77808390D02*
X101114286Y-77760771D01*
X101114286Y-77760771D02*
X101066667Y-77665533D01*
X101066667Y-77665533D02*
X101066667Y-77570295D01*
X101066667Y-77570295D02*
X101114286Y-77475057D01*
X101114286Y-77475057D02*
X101161905Y-77427438D01*
X101161905Y-77427438D02*
X101257143Y-77379819D01*
X101257143Y-77379819D02*
X101495238Y-77379819D01*
X101495238Y-77379819D02*
X101638095Y-77427438D01*
X101971429Y-77379819D02*
X102209524Y-78379819D01*
X102209524Y-78379819D02*
X102400000Y-77665533D01*
X102400000Y-77665533D02*
X102590476Y-78379819D01*
X102590476Y-78379819D02*
X102828572Y-77379819D01*
X103733333Y-78379819D02*
X103161905Y-78379819D01*
X103447619Y-78379819D02*
X103447619Y-77379819D01*
X103447619Y-77379819D02*
X103352381Y-77522676D01*
X103352381Y-77522676D02*
X103257143Y-77617914D01*
X103257143Y-77617914D02*
X103161905Y-77665533D01*
X110404761Y-65094819D02*
X110071428Y-64618628D01*
X109833333Y-65094819D02*
X109833333Y-64094819D01*
X109833333Y-64094819D02*
X110214285Y-64094819D01*
X110214285Y-64094819D02*
X110309523Y-64142438D01*
X110309523Y-64142438D02*
X110357142Y-64190057D01*
X110357142Y-64190057D02*
X110404761Y-64285295D01*
X110404761Y-64285295D02*
X110404761Y-64428152D01*
X110404761Y-64428152D02*
X110357142Y-64523390D01*
X110357142Y-64523390D02*
X110309523Y-64571009D01*
X110309523Y-64571009D02*
X110214285Y-64618628D01*
X110214285Y-64618628D02*
X109833333Y-64618628D01*
X110690476Y-64094819D02*
X111023809Y-65094819D01*
X111023809Y-65094819D02*
X111357142Y-64094819D01*
X112214285Y-65094819D02*
X111642857Y-65094819D01*
X111928571Y-65094819D02*
X111928571Y-64094819D01*
X111928571Y-64094819D02*
X111833333Y-64237676D01*
X111833333Y-64237676D02*
X111738095Y-64332914D01*
X111738095Y-64332914D02*
X111642857Y-64380533D01*
X82157142Y-62904819D02*
X81823809Y-62428628D01*
X81585714Y-62904819D02*
X81585714Y-61904819D01*
X81585714Y-61904819D02*
X81966666Y-61904819D01*
X81966666Y-61904819D02*
X82061904Y-61952438D01*
X82061904Y-61952438D02*
X82109523Y-62000057D01*
X82109523Y-62000057D02*
X82157142Y-62095295D01*
X82157142Y-62095295D02*
X82157142Y-62238152D01*
X82157142Y-62238152D02*
X82109523Y-62333390D01*
X82109523Y-62333390D02*
X82061904Y-62381009D01*
X82061904Y-62381009D02*
X81966666Y-62428628D01*
X81966666Y-62428628D02*
X81585714Y-62428628D01*
X83109523Y-62904819D02*
X82538095Y-62904819D01*
X82823809Y-62904819D02*
X82823809Y-61904819D01*
X82823809Y-61904819D02*
X82728571Y-62047676D01*
X82728571Y-62047676D02*
X82633333Y-62142914D01*
X82633333Y-62142914D02*
X82538095Y-62190533D01*
X83966666Y-62238152D02*
X83966666Y-62904819D01*
X83728571Y-61857200D02*
X83490476Y-62571485D01*
X83490476Y-62571485D02*
X84109523Y-62571485D01*
X91557142Y-66204819D02*
X91223809Y-65728628D01*
X90985714Y-66204819D02*
X90985714Y-65204819D01*
X90985714Y-65204819D02*
X91366666Y-65204819D01*
X91366666Y-65204819D02*
X91461904Y-65252438D01*
X91461904Y-65252438D02*
X91509523Y-65300057D01*
X91509523Y-65300057D02*
X91557142Y-65395295D01*
X91557142Y-65395295D02*
X91557142Y-65538152D01*
X91557142Y-65538152D02*
X91509523Y-65633390D01*
X91509523Y-65633390D02*
X91461904Y-65681009D01*
X91461904Y-65681009D02*
X91366666Y-65728628D01*
X91366666Y-65728628D02*
X90985714Y-65728628D01*
X92509523Y-66204819D02*
X91938095Y-66204819D01*
X92223809Y-66204819D02*
X92223809Y-65204819D01*
X92223809Y-65204819D02*
X92128571Y-65347676D01*
X92128571Y-65347676D02*
X92033333Y-65442914D01*
X92033333Y-65442914D02*
X91938095Y-65490533D01*
X92842857Y-65204819D02*
X93461904Y-65204819D01*
X93461904Y-65204819D02*
X93128571Y-65585771D01*
X93128571Y-65585771D02*
X93271428Y-65585771D01*
X93271428Y-65585771D02*
X93366666Y-65633390D01*
X93366666Y-65633390D02*
X93414285Y-65681009D01*
X93414285Y-65681009D02*
X93461904Y-65776247D01*
X93461904Y-65776247D02*
X93461904Y-66014342D01*
X93461904Y-66014342D02*
X93414285Y-66109580D01*
X93414285Y-66109580D02*
X93366666Y-66157200D01*
X93366666Y-66157200D02*
X93271428Y-66204819D01*
X93271428Y-66204819D02*
X92985714Y-66204819D01*
X92985714Y-66204819D02*
X92890476Y-66157200D01*
X92890476Y-66157200D02*
X92842857Y-66109580D01*
X96557142Y-58504819D02*
X96223809Y-58028628D01*
X95985714Y-58504819D02*
X95985714Y-57504819D01*
X95985714Y-57504819D02*
X96366666Y-57504819D01*
X96366666Y-57504819D02*
X96461904Y-57552438D01*
X96461904Y-57552438D02*
X96509523Y-57600057D01*
X96509523Y-57600057D02*
X96557142Y-57695295D01*
X96557142Y-57695295D02*
X96557142Y-57838152D01*
X96557142Y-57838152D02*
X96509523Y-57933390D01*
X96509523Y-57933390D02*
X96461904Y-57981009D01*
X96461904Y-57981009D02*
X96366666Y-58028628D01*
X96366666Y-58028628D02*
X95985714Y-58028628D01*
X97509523Y-58504819D02*
X96938095Y-58504819D01*
X97223809Y-58504819D02*
X97223809Y-57504819D01*
X97223809Y-57504819D02*
X97128571Y-57647676D01*
X97128571Y-57647676D02*
X97033333Y-57742914D01*
X97033333Y-57742914D02*
X96938095Y-57790533D01*
X97890476Y-57600057D02*
X97938095Y-57552438D01*
X97938095Y-57552438D02*
X98033333Y-57504819D01*
X98033333Y-57504819D02*
X98271428Y-57504819D01*
X98271428Y-57504819D02*
X98366666Y-57552438D01*
X98366666Y-57552438D02*
X98414285Y-57600057D01*
X98414285Y-57600057D02*
X98461904Y-57695295D01*
X98461904Y-57695295D02*
X98461904Y-57790533D01*
X98461904Y-57790533D02*
X98414285Y-57933390D01*
X98414285Y-57933390D02*
X97842857Y-58504819D01*
X97842857Y-58504819D02*
X98461904Y-58504819D01*
X101704819Y-77042857D02*
X101228628Y-77376190D01*
X101704819Y-77614285D02*
X100704819Y-77614285D01*
X100704819Y-77614285D02*
X100704819Y-77233333D01*
X100704819Y-77233333D02*
X100752438Y-77138095D01*
X100752438Y-77138095D02*
X100800057Y-77090476D01*
X100800057Y-77090476D02*
X100895295Y-77042857D01*
X100895295Y-77042857D02*
X101038152Y-77042857D01*
X101038152Y-77042857D02*
X101133390Y-77090476D01*
X101133390Y-77090476D02*
X101181009Y-77138095D01*
X101181009Y-77138095D02*
X101228628Y-77233333D01*
X101228628Y-77233333D02*
X101228628Y-77614285D01*
X101704819Y-76090476D02*
X101704819Y-76661904D01*
X101704819Y-76376190D02*
X100704819Y-76376190D01*
X100704819Y-76376190D02*
X100847676Y-76471428D01*
X100847676Y-76471428D02*
X100942914Y-76566666D01*
X100942914Y-76566666D02*
X100990533Y-76661904D01*
X101704819Y-75138095D02*
X101704819Y-75709523D01*
X101704819Y-75423809D02*
X100704819Y-75423809D01*
X100704819Y-75423809D02*
X100847676Y-75519047D01*
X100847676Y-75519047D02*
X100942914Y-75614285D01*
X100942914Y-75614285D02*
X100990533Y-75709523D01*
X107304819Y-77042857D02*
X106828628Y-77376190D01*
X107304819Y-77614285D02*
X106304819Y-77614285D01*
X106304819Y-77614285D02*
X106304819Y-77233333D01*
X106304819Y-77233333D02*
X106352438Y-77138095D01*
X106352438Y-77138095D02*
X106400057Y-77090476D01*
X106400057Y-77090476D02*
X106495295Y-77042857D01*
X106495295Y-77042857D02*
X106638152Y-77042857D01*
X106638152Y-77042857D02*
X106733390Y-77090476D01*
X106733390Y-77090476D02*
X106781009Y-77138095D01*
X106781009Y-77138095D02*
X106828628Y-77233333D01*
X106828628Y-77233333D02*
X106828628Y-77614285D01*
X107304819Y-76090476D02*
X107304819Y-76661904D01*
X107304819Y-76376190D02*
X106304819Y-76376190D01*
X106304819Y-76376190D02*
X106447676Y-76471428D01*
X106447676Y-76471428D02*
X106542914Y-76566666D01*
X106542914Y-76566666D02*
X106590533Y-76661904D01*
X106304819Y-75471428D02*
X106304819Y-75376190D01*
X106304819Y-75376190D02*
X106352438Y-75280952D01*
X106352438Y-75280952D02*
X106400057Y-75233333D01*
X106400057Y-75233333D02*
X106495295Y-75185714D01*
X106495295Y-75185714D02*
X106685771Y-75138095D01*
X106685771Y-75138095D02*
X106923866Y-75138095D01*
X106923866Y-75138095D02*
X107114342Y-75185714D01*
X107114342Y-75185714D02*
X107209580Y-75233333D01*
X107209580Y-75233333D02*
X107257200Y-75280952D01*
X107257200Y-75280952D02*
X107304819Y-75376190D01*
X107304819Y-75376190D02*
X107304819Y-75471428D01*
X107304819Y-75471428D02*
X107257200Y-75566666D01*
X107257200Y-75566666D02*
X107209580Y-75614285D01*
X107209580Y-75614285D02*
X107114342Y-75661904D01*
X107114342Y-75661904D02*
X106923866Y-75709523D01*
X106923866Y-75709523D02*
X106685771Y-75709523D01*
X106685771Y-75709523D02*
X106495295Y-75661904D01*
X106495295Y-75661904D02*
X106400057Y-75614285D01*
X106400057Y-75614285D02*
X106352438Y-75566666D01*
X106352438Y-75566666D02*
X106304819Y-75471428D01*
X103833333Y-68004819D02*
X103500000Y-67528628D01*
X103261905Y-68004819D02*
X103261905Y-67004819D01*
X103261905Y-67004819D02*
X103642857Y-67004819D01*
X103642857Y-67004819D02*
X103738095Y-67052438D01*
X103738095Y-67052438D02*
X103785714Y-67100057D01*
X103785714Y-67100057D02*
X103833333Y-67195295D01*
X103833333Y-67195295D02*
X103833333Y-67338152D01*
X103833333Y-67338152D02*
X103785714Y-67433390D01*
X103785714Y-67433390D02*
X103738095Y-67481009D01*
X103738095Y-67481009D02*
X103642857Y-67528628D01*
X103642857Y-67528628D02*
X103261905Y-67528628D01*
X104309524Y-68004819D02*
X104500000Y-68004819D01*
X104500000Y-68004819D02*
X104595238Y-67957200D01*
X104595238Y-67957200D02*
X104642857Y-67909580D01*
X104642857Y-67909580D02*
X104738095Y-67766723D01*
X104738095Y-67766723D02*
X104785714Y-67576247D01*
X104785714Y-67576247D02*
X104785714Y-67195295D01*
X104785714Y-67195295D02*
X104738095Y-67100057D01*
X104738095Y-67100057D02*
X104690476Y-67052438D01*
X104690476Y-67052438D02*
X104595238Y-67004819D01*
X104595238Y-67004819D02*
X104404762Y-67004819D01*
X104404762Y-67004819D02*
X104309524Y-67052438D01*
X104309524Y-67052438D02*
X104261905Y-67100057D01*
X104261905Y-67100057D02*
X104214286Y-67195295D01*
X104214286Y-67195295D02*
X104214286Y-67433390D01*
X104214286Y-67433390D02*
X104261905Y-67528628D01*
X104261905Y-67528628D02*
X104309524Y-67576247D01*
X104309524Y-67576247D02*
X104404762Y-67623866D01*
X104404762Y-67623866D02*
X104595238Y-67623866D01*
X104595238Y-67623866D02*
X104690476Y-67576247D01*
X104690476Y-67576247D02*
X104738095Y-67528628D01*
X104738095Y-67528628D02*
X104785714Y-67433390D01*
X57033333Y-80904819D02*
X56700000Y-80428628D01*
X56461905Y-80904819D02*
X56461905Y-79904819D01*
X56461905Y-79904819D02*
X56842857Y-79904819D01*
X56842857Y-79904819D02*
X56938095Y-79952438D01*
X56938095Y-79952438D02*
X56985714Y-80000057D01*
X56985714Y-80000057D02*
X57033333Y-80095295D01*
X57033333Y-80095295D02*
X57033333Y-80238152D01*
X57033333Y-80238152D02*
X56985714Y-80333390D01*
X56985714Y-80333390D02*
X56938095Y-80381009D01*
X56938095Y-80381009D02*
X56842857Y-80428628D01*
X56842857Y-80428628D02*
X56461905Y-80428628D01*
X57604762Y-80333390D02*
X57509524Y-80285771D01*
X57509524Y-80285771D02*
X57461905Y-80238152D01*
X57461905Y-80238152D02*
X57414286Y-80142914D01*
X57414286Y-80142914D02*
X57414286Y-80095295D01*
X57414286Y-80095295D02*
X57461905Y-80000057D01*
X57461905Y-80000057D02*
X57509524Y-79952438D01*
X57509524Y-79952438D02*
X57604762Y-79904819D01*
X57604762Y-79904819D02*
X57795238Y-79904819D01*
X57795238Y-79904819D02*
X57890476Y-79952438D01*
X57890476Y-79952438D02*
X57938095Y-80000057D01*
X57938095Y-80000057D02*
X57985714Y-80095295D01*
X57985714Y-80095295D02*
X57985714Y-80142914D01*
X57985714Y-80142914D02*
X57938095Y-80238152D01*
X57938095Y-80238152D02*
X57890476Y-80285771D01*
X57890476Y-80285771D02*
X57795238Y-80333390D01*
X57795238Y-80333390D02*
X57604762Y-80333390D01*
X57604762Y-80333390D02*
X57509524Y-80381009D01*
X57509524Y-80381009D02*
X57461905Y-80428628D01*
X57461905Y-80428628D02*
X57414286Y-80523866D01*
X57414286Y-80523866D02*
X57414286Y-80714342D01*
X57414286Y-80714342D02*
X57461905Y-80809580D01*
X57461905Y-80809580D02*
X57509524Y-80857200D01*
X57509524Y-80857200D02*
X57604762Y-80904819D01*
X57604762Y-80904819D02*
X57795238Y-80904819D01*
X57795238Y-80904819D02*
X57890476Y-80857200D01*
X57890476Y-80857200D02*
X57938095Y-80809580D01*
X57938095Y-80809580D02*
X57985714Y-80714342D01*
X57985714Y-80714342D02*
X57985714Y-80523866D01*
X57985714Y-80523866D02*
X57938095Y-80428628D01*
X57938095Y-80428628D02*
X57890476Y-80381009D01*
X57890476Y-80381009D02*
X57795238Y-80333390D01*
X57033333Y-77904819D02*
X56700000Y-77428628D01*
X56461905Y-77904819D02*
X56461905Y-76904819D01*
X56461905Y-76904819D02*
X56842857Y-76904819D01*
X56842857Y-76904819D02*
X56938095Y-76952438D01*
X56938095Y-76952438D02*
X56985714Y-77000057D01*
X56985714Y-77000057D02*
X57033333Y-77095295D01*
X57033333Y-77095295D02*
X57033333Y-77238152D01*
X57033333Y-77238152D02*
X56985714Y-77333390D01*
X56985714Y-77333390D02*
X56938095Y-77381009D01*
X56938095Y-77381009D02*
X56842857Y-77428628D01*
X56842857Y-77428628D02*
X56461905Y-77428628D01*
X57366667Y-76904819D02*
X58033333Y-76904819D01*
X58033333Y-76904819D02*
X57604762Y-77904819D01*
X57033333Y-74904819D02*
X56700000Y-74428628D01*
X56461905Y-74904819D02*
X56461905Y-73904819D01*
X56461905Y-73904819D02*
X56842857Y-73904819D01*
X56842857Y-73904819D02*
X56938095Y-73952438D01*
X56938095Y-73952438D02*
X56985714Y-74000057D01*
X56985714Y-74000057D02*
X57033333Y-74095295D01*
X57033333Y-74095295D02*
X57033333Y-74238152D01*
X57033333Y-74238152D02*
X56985714Y-74333390D01*
X56985714Y-74333390D02*
X56938095Y-74381009D01*
X56938095Y-74381009D02*
X56842857Y-74428628D01*
X56842857Y-74428628D02*
X56461905Y-74428628D01*
X57890476Y-73904819D02*
X57700000Y-73904819D01*
X57700000Y-73904819D02*
X57604762Y-73952438D01*
X57604762Y-73952438D02*
X57557143Y-74000057D01*
X57557143Y-74000057D02*
X57461905Y-74142914D01*
X57461905Y-74142914D02*
X57414286Y-74333390D01*
X57414286Y-74333390D02*
X57414286Y-74714342D01*
X57414286Y-74714342D02*
X57461905Y-74809580D01*
X57461905Y-74809580D02*
X57509524Y-74857200D01*
X57509524Y-74857200D02*
X57604762Y-74904819D01*
X57604762Y-74904819D02*
X57795238Y-74904819D01*
X57795238Y-74904819D02*
X57890476Y-74857200D01*
X57890476Y-74857200D02*
X57938095Y-74809580D01*
X57938095Y-74809580D02*
X57985714Y-74714342D01*
X57985714Y-74714342D02*
X57985714Y-74476247D01*
X57985714Y-74476247D02*
X57938095Y-74381009D01*
X57938095Y-74381009D02*
X57890476Y-74333390D01*
X57890476Y-74333390D02*
X57795238Y-74285771D01*
X57795238Y-74285771D02*
X57604762Y-74285771D01*
X57604762Y-74285771D02*
X57509524Y-74333390D01*
X57509524Y-74333390D02*
X57461905Y-74381009D01*
X57461905Y-74381009D02*
X57414286Y-74476247D01*
X57033333Y-71904819D02*
X56700000Y-71428628D01*
X56461905Y-71904819D02*
X56461905Y-70904819D01*
X56461905Y-70904819D02*
X56842857Y-70904819D01*
X56842857Y-70904819D02*
X56938095Y-70952438D01*
X56938095Y-70952438D02*
X56985714Y-71000057D01*
X56985714Y-71000057D02*
X57033333Y-71095295D01*
X57033333Y-71095295D02*
X57033333Y-71238152D01*
X57033333Y-71238152D02*
X56985714Y-71333390D01*
X56985714Y-71333390D02*
X56938095Y-71381009D01*
X56938095Y-71381009D02*
X56842857Y-71428628D01*
X56842857Y-71428628D02*
X56461905Y-71428628D01*
X57938095Y-70904819D02*
X57461905Y-70904819D01*
X57461905Y-70904819D02*
X57414286Y-71381009D01*
X57414286Y-71381009D02*
X57461905Y-71333390D01*
X57461905Y-71333390D02*
X57557143Y-71285771D01*
X57557143Y-71285771D02*
X57795238Y-71285771D01*
X57795238Y-71285771D02*
X57890476Y-71333390D01*
X57890476Y-71333390D02*
X57938095Y-71381009D01*
X57938095Y-71381009D02*
X57985714Y-71476247D01*
X57985714Y-71476247D02*
X57985714Y-71714342D01*
X57985714Y-71714342D02*
X57938095Y-71809580D01*
X57938095Y-71809580D02*
X57890476Y-71857200D01*
X57890476Y-71857200D02*
X57795238Y-71904819D01*
X57795238Y-71904819D02*
X57557143Y-71904819D01*
X57557143Y-71904819D02*
X57461905Y-71857200D01*
X57461905Y-71857200D02*
X57414286Y-71809580D01*
X57033333Y-68904819D02*
X56700000Y-68428628D01*
X56461905Y-68904819D02*
X56461905Y-67904819D01*
X56461905Y-67904819D02*
X56842857Y-67904819D01*
X56842857Y-67904819D02*
X56938095Y-67952438D01*
X56938095Y-67952438D02*
X56985714Y-68000057D01*
X56985714Y-68000057D02*
X57033333Y-68095295D01*
X57033333Y-68095295D02*
X57033333Y-68238152D01*
X57033333Y-68238152D02*
X56985714Y-68333390D01*
X56985714Y-68333390D02*
X56938095Y-68381009D01*
X56938095Y-68381009D02*
X56842857Y-68428628D01*
X56842857Y-68428628D02*
X56461905Y-68428628D01*
X57890476Y-68238152D02*
X57890476Y-68904819D01*
X57652381Y-67857200D02*
X57414286Y-68571485D01*
X57414286Y-68571485D02*
X58033333Y-68571485D01*
X57033333Y-65904819D02*
X56700000Y-65428628D01*
X56461905Y-65904819D02*
X56461905Y-64904819D01*
X56461905Y-64904819D02*
X56842857Y-64904819D01*
X56842857Y-64904819D02*
X56938095Y-64952438D01*
X56938095Y-64952438D02*
X56985714Y-65000057D01*
X56985714Y-65000057D02*
X57033333Y-65095295D01*
X57033333Y-65095295D02*
X57033333Y-65238152D01*
X57033333Y-65238152D02*
X56985714Y-65333390D01*
X56985714Y-65333390D02*
X56938095Y-65381009D01*
X56938095Y-65381009D02*
X56842857Y-65428628D01*
X56842857Y-65428628D02*
X56461905Y-65428628D01*
X57366667Y-64904819D02*
X57985714Y-64904819D01*
X57985714Y-64904819D02*
X57652381Y-65285771D01*
X57652381Y-65285771D02*
X57795238Y-65285771D01*
X57795238Y-65285771D02*
X57890476Y-65333390D01*
X57890476Y-65333390D02*
X57938095Y-65381009D01*
X57938095Y-65381009D02*
X57985714Y-65476247D01*
X57985714Y-65476247D02*
X57985714Y-65714342D01*
X57985714Y-65714342D02*
X57938095Y-65809580D01*
X57938095Y-65809580D02*
X57890476Y-65857200D01*
X57890476Y-65857200D02*
X57795238Y-65904819D01*
X57795238Y-65904819D02*
X57509524Y-65904819D01*
X57509524Y-65904819D02*
X57414286Y-65857200D01*
X57414286Y-65857200D02*
X57366667Y-65809580D01*
X57033333Y-62904819D02*
X56700000Y-62428628D01*
X56461905Y-62904819D02*
X56461905Y-61904819D01*
X56461905Y-61904819D02*
X56842857Y-61904819D01*
X56842857Y-61904819D02*
X56938095Y-61952438D01*
X56938095Y-61952438D02*
X56985714Y-62000057D01*
X56985714Y-62000057D02*
X57033333Y-62095295D01*
X57033333Y-62095295D02*
X57033333Y-62238152D01*
X57033333Y-62238152D02*
X56985714Y-62333390D01*
X56985714Y-62333390D02*
X56938095Y-62381009D01*
X56938095Y-62381009D02*
X56842857Y-62428628D01*
X56842857Y-62428628D02*
X56461905Y-62428628D01*
X57414286Y-62000057D02*
X57461905Y-61952438D01*
X57461905Y-61952438D02*
X57557143Y-61904819D01*
X57557143Y-61904819D02*
X57795238Y-61904819D01*
X57795238Y-61904819D02*
X57890476Y-61952438D01*
X57890476Y-61952438D02*
X57938095Y-62000057D01*
X57938095Y-62000057D02*
X57985714Y-62095295D01*
X57985714Y-62095295D02*
X57985714Y-62190533D01*
X57985714Y-62190533D02*
X57938095Y-62333390D01*
X57938095Y-62333390D02*
X57366667Y-62904819D01*
X57366667Y-62904819D02*
X57985714Y-62904819D01*
X57058333Y-59904819D02*
X56725000Y-59428628D01*
X56486905Y-59904819D02*
X56486905Y-58904819D01*
X56486905Y-58904819D02*
X56867857Y-58904819D01*
X56867857Y-58904819D02*
X56963095Y-58952438D01*
X56963095Y-58952438D02*
X57010714Y-59000057D01*
X57010714Y-59000057D02*
X57058333Y-59095295D01*
X57058333Y-59095295D02*
X57058333Y-59238152D01*
X57058333Y-59238152D02*
X57010714Y-59333390D01*
X57010714Y-59333390D02*
X56963095Y-59381009D01*
X56963095Y-59381009D02*
X56867857Y-59428628D01*
X56867857Y-59428628D02*
X56486905Y-59428628D01*
X58010714Y-59904819D02*
X57439286Y-59904819D01*
X57725000Y-59904819D02*
X57725000Y-58904819D01*
X57725000Y-58904819D02*
X57629762Y-59047676D01*
X57629762Y-59047676D02*
X57534524Y-59142914D01*
X57534524Y-59142914D02*
X57439286Y-59190533D01*
X54034819Y-82908333D02*
X54749104Y-82908333D01*
X54749104Y-82908333D02*
X54891961Y-82955952D01*
X54891961Y-82955952D02*
X54987200Y-83051190D01*
X54987200Y-83051190D02*
X55034819Y-83194047D01*
X55034819Y-83194047D02*
X55034819Y-83289285D01*
X54034819Y-82527380D02*
X54034819Y-81908333D01*
X54034819Y-81908333D02*
X54415771Y-82241666D01*
X54415771Y-82241666D02*
X54415771Y-82098809D01*
X54415771Y-82098809D02*
X54463390Y-82003571D01*
X54463390Y-82003571D02*
X54511009Y-81955952D01*
X54511009Y-81955952D02*
X54606247Y-81908333D01*
X54606247Y-81908333D02*
X54844342Y-81908333D01*
X54844342Y-81908333D02*
X54939580Y-81955952D01*
X54939580Y-81955952D02*
X54987200Y-82003571D01*
X54987200Y-82003571D02*
X55034819Y-82098809D01*
X55034819Y-82098809D02*
X55034819Y-82384523D01*
X55034819Y-82384523D02*
X54987200Y-82479761D01*
X54987200Y-82479761D02*
X54939580Y-82527380D01*
X76874819Y-83158333D02*
X77589104Y-83158333D01*
X77589104Y-83158333D02*
X77731961Y-83205952D01*
X77731961Y-83205952D02*
X77827200Y-83301190D01*
X77827200Y-83301190D02*
X77874819Y-83444047D01*
X77874819Y-83444047D02*
X77874819Y-83539285D01*
X76970057Y-82729761D02*
X76922438Y-82682142D01*
X76922438Y-82682142D02*
X76874819Y-82586904D01*
X76874819Y-82586904D02*
X76874819Y-82348809D01*
X76874819Y-82348809D02*
X76922438Y-82253571D01*
X76922438Y-82253571D02*
X76970057Y-82205952D01*
X76970057Y-82205952D02*
X77065295Y-82158333D01*
X77065295Y-82158333D02*
X77160533Y-82158333D01*
X77160533Y-82158333D02*
X77303390Y-82205952D01*
X77303390Y-82205952D02*
X77874819Y-82777380D01*
X77874819Y-82777380D02*
X77874819Y-82158333D01*
X90644819Y-83133333D02*
X91359104Y-83133333D01*
X91359104Y-83133333D02*
X91501961Y-83180952D01*
X91501961Y-83180952D02*
X91597200Y-83276190D01*
X91597200Y-83276190D02*
X91644819Y-83419047D01*
X91644819Y-83419047D02*
X91644819Y-83514285D01*
X91644819Y-82133333D02*
X91644819Y-82704761D01*
X91644819Y-82419047D02*
X90644819Y-82419047D01*
X90644819Y-82419047D02*
X90787676Y-82514285D01*
X90787676Y-82514285D02*
X90882914Y-82609523D01*
X90882914Y-82609523D02*
X90930533Y-82704761D01*
X60711905Y-77604819D02*
X60711905Y-76604819D01*
X60711905Y-76604819D02*
X60950000Y-76604819D01*
X60950000Y-76604819D02*
X61092857Y-76652438D01*
X61092857Y-76652438D02*
X61188095Y-76747676D01*
X61188095Y-76747676D02*
X61235714Y-76842914D01*
X61235714Y-76842914D02*
X61283333Y-77033390D01*
X61283333Y-77033390D02*
X61283333Y-77176247D01*
X61283333Y-77176247D02*
X61235714Y-77366723D01*
X61235714Y-77366723D02*
X61188095Y-77461961D01*
X61188095Y-77461961D02*
X61092857Y-77557200D01*
X61092857Y-77557200D02*
X60950000Y-77604819D01*
X60950000Y-77604819D02*
X60711905Y-77604819D01*
X61854762Y-77033390D02*
X61759524Y-76985771D01*
X61759524Y-76985771D02*
X61711905Y-76938152D01*
X61711905Y-76938152D02*
X61664286Y-76842914D01*
X61664286Y-76842914D02*
X61664286Y-76795295D01*
X61664286Y-76795295D02*
X61711905Y-76700057D01*
X61711905Y-76700057D02*
X61759524Y-76652438D01*
X61759524Y-76652438D02*
X61854762Y-76604819D01*
X61854762Y-76604819D02*
X62045238Y-76604819D01*
X62045238Y-76604819D02*
X62140476Y-76652438D01*
X62140476Y-76652438D02*
X62188095Y-76700057D01*
X62188095Y-76700057D02*
X62235714Y-76795295D01*
X62235714Y-76795295D02*
X62235714Y-76842914D01*
X62235714Y-76842914D02*
X62188095Y-76938152D01*
X62188095Y-76938152D02*
X62140476Y-76985771D01*
X62140476Y-76985771D02*
X62045238Y-77033390D01*
X62045238Y-77033390D02*
X61854762Y-77033390D01*
X61854762Y-77033390D02*
X61759524Y-77081009D01*
X61759524Y-77081009D02*
X61711905Y-77128628D01*
X61711905Y-77128628D02*
X61664286Y-77223866D01*
X61664286Y-77223866D02*
X61664286Y-77414342D01*
X61664286Y-77414342D02*
X61711905Y-77509580D01*
X61711905Y-77509580D02*
X61759524Y-77557200D01*
X61759524Y-77557200D02*
X61854762Y-77604819D01*
X61854762Y-77604819D02*
X62045238Y-77604819D01*
X62045238Y-77604819D02*
X62140476Y-77557200D01*
X62140476Y-77557200D02*
X62188095Y-77509580D01*
X62188095Y-77509580D02*
X62235714Y-77414342D01*
X62235714Y-77414342D02*
X62235714Y-77223866D01*
X62235714Y-77223866D02*
X62188095Y-77128628D01*
X62188095Y-77128628D02*
X62140476Y-77081009D01*
X62140476Y-77081009D02*
X62045238Y-77033390D01*
X60711905Y-74604819D02*
X60711905Y-73604819D01*
X60711905Y-73604819D02*
X60950000Y-73604819D01*
X60950000Y-73604819D02*
X61092857Y-73652438D01*
X61092857Y-73652438D02*
X61188095Y-73747676D01*
X61188095Y-73747676D02*
X61235714Y-73842914D01*
X61235714Y-73842914D02*
X61283333Y-74033390D01*
X61283333Y-74033390D02*
X61283333Y-74176247D01*
X61283333Y-74176247D02*
X61235714Y-74366723D01*
X61235714Y-74366723D02*
X61188095Y-74461961D01*
X61188095Y-74461961D02*
X61092857Y-74557200D01*
X61092857Y-74557200D02*
X60950000Y-74604819D01*
X60950000Y-74604819D02*
X60711905Y-74604819D01*
X61616667Y-73604819D02*
X62283333Y-73604819D01*
X62283333Y-73604819D02*
X61854762Y-74604819D01*
X60711905Y-71604819D02*
X60711905Y-70604819D01*
X60711905Y-70604819D02*
X60950000Y-70604819D01*
X60950000Y-70604819D02*
X61092857Y-70652438D01*
X61092857Y-70652438D02*
X61188095Y-70747676D01*
X61188095Y-70747676D02*
X61235714Y-70842914D01*
X61235714Y-70842914D02*
X61283333Y-71033390D01*
X61283333Y-71033390D02*
X61283333Y-71176247D01*
X61283333Y-71176247D02*
X61235714Y-71366723D01*
X61235714Y-71366723D02*
X61188095Y-71461961D01*
X61188095Y-71461961D02*
X61092857Y-71557200D01*
X61092857Y-71557200D02*
X60950000Y-71604819D01*
X60950000Y-71604819D02*
X60711905Y-71604819D01*
X62140476Y-70604819D02*
X61950000Y-70604819D01*
X61950000Y-70604819D02*
X61854762Y-70652438D01*
X61854762Y-70652438D02*
X61807143Y-70700057D01*
X61807143Y-70700057D02*
X61711905Y-70842914D01*
X61711905Y-70842914D02*
X61664286Y-71033390D01*
X61664286Y-71033390D02*
X61664286Y-71414342D01*
X61664286Y-71414342D02*
X61711905Y-71509580D01*
X61711905Y-71509580D02*
X61759524Y-71557200D01*
X61759524Y-71557200D02*
X61854762Y-71604819D01*
X61854762Y-71604819D02*
X62045238Y-71604819D01*
X62045238Y-71604819D02*
X62140476Y-71557200D01*
X62140476Y-71557200D02*
X62188095Y-71509580D01*
X62188095Y-71509580D02*
X62235714Y-71414342D01*
X62235714Y-71414342D02*
X62235714Y-71176247D01*
X62235714Y-71176247D02*
X62188095Y-71081009D01*
X62188095Y-71081009D02*
X62140476Y-71033390D01*
X62140476Y-71033390D02*
X62045238Y-70985771D01*
X62045238Y-70985771D02*
X61854762Y-70985771D01*
X61854762Y-70985771D02*
X61759524Y-71033390D01*
X61759524Y-71033390D02*
X61711905Y-71081009D01*
X61711905Y-71081009D02*
X61664286Y-71176247D01*
X60711905Y-68604819D02*
X60711905Y-67604819D01*
X60711905Y-67604819D02*
X60950000Y-67604819D01*
X60950000Y-67604819D02*
X61092857Y-67652438D01*
X61092857Y-67652438D02*
X61188095Y-67747676D01*
X61188095Y-67747676D02*
X61235714Y-67842914D01*
X61235714Y-67842914D02*
X61283333Y-68033390D01*
X61283333Y-68033390D02*
X61283333Y-68176247D01*
X61283333Y-68176247D02*
X61235714Y-68366723D01*
X61235714Y-68366723D02*
X61188095Y-68461961D01*
X61188095Y-68461961D02*
X61092857Y-68557200D01*
X61092857Y-68557200D02*
X60950000Y-68604819D01*
X60950000Y-68604819D02*
X60711905Y-68604819D01*
X62188095Y-67604819D02*
X61711905Y-67604819D01*
X61711905Y-67604819D02*
X61664286Y-68081009D01*
X61664286Y-68081009D02*
X61711905Y-68033390D01*
X61711905Y-68033390D02*
X61807143Y-67985771D01*
X61807143Y-67985771D02*
X62045238Y-67985771D01*
X62045238Y-67985771D02*
X62140476Y-68033390D01*
X62140476Y-68033390D02*
X62188095Y-68081009D01*
X62188095Y-68081009D02*
X62235714Y-68176247D01*
X62235714Y-68176247D02*
X62235714Y-68414342D01*
X62235714Y-68414342D02*
X62188095Y-68509580D01*
X62188095Y-68509580D02*
X62140476Y-68557200D01*
X62140476Y-68557200D02*
X62045238Y-68604819D01*
X62045238Y-68604819D02*
X61807143Y-68604819D01*
X61807143Y-68604819D02*
X61711905Y-68557200D01*
X61711905Y-68557200D02*
X61664286Y-68509580D01*
X60711905Y-65604819D02*
X60711905Y-64604819D01*
X60711905Y-64604819D02*
X60950000Y-64604819D01*
X60950000Y-64604819D02*
X61092857Y-64652438D01*
X61092857Y-64652438D02*
X61188095Y-64747676D01*
X61188095Y-64747676D02*
X61235714Y-64842914D01*
X61235714Y-64842914D02*
X61283333Y-65033390D01*
X61283333Y-65033390D02*
X61283333Y-65176247D01*
X61283333Y-65176247D02*
X61235714Y-65366723D01*
X61235714Y-65366723D02*
X61188095Y-65461961D01*
X61188095Y-65461961D02*
X61092857Y-65557200D01*
X61092857Y-65557200D02*
X60950000Y-65604819D01*
X60950000Y-65604819D02*
X60711905Y-65604819D01*
X62140476Y-64938152D02*
X62140476Y-65604819D01*
X61902381Y-64557200D02*
X61664286Y-65271485D01*
X61664286Y-65271485D02*
X62283333Y-65271485D01*
X60711905Y-62604819D02*
X60711905Y-61604819D01*
X60711905Y-61604819D02*
X60950000Y-61604819D01*
X60950000Y-61604819D02*
X61092857Y-61652438D01*
X61092857Y-61652438D02*
X61188095Y-61747676D01*
X61188095Y-61747676D02*
X61235714Y-61842914D01*
X61235714Y-61842914D02*
X61283333Y-62033390D01*
X61283333Y-62033390D02*
X61283333Y-62176247D01*
X61283333Y-62176247D02*
X61235714Y-62366723D01*
X61235714Y-62366723D02*
X61188095Y-62461961D01*
X61188095Y-62461961D02*
X61092857Y-62557200D01*
X61092857Y-62557200D02*
X60950000Y-62604819D01*
X60950000Y-62604819D02*
X60711905Y-62604819D01*
X61616667Y-61604819D02*
X62235714Y-61604819D01*
X62235714Y-61604819D02*
X61902381Y-61985771D01*
X61902381Y-61985771D02*
X62045238Y-61985771D01*
X62045238Y-61985771D02*
X62140476Y-62033390D01*
X62140476Y-62033390D02*
X62188095Y-62081009D01*
X62188095Y-62081009D02*
X62235714Y-62176247D01*
X62235714Y-62176247D02*
X62235714Y-62414342D01*
X62235714Y-62414342D02*
X62188095Y-62509580D01*
X62188095Y-62509580D02*
X62140476Y-62557200D01*
X62140476Y-62557200D02*
X62045238Y-62604819D01*
X62045238Y-62604819D02*
X61759524Y-62604819D01*
X61759524Y-62604819D02*
X61664286Y-62557200D01*
X61664286Y-62557200D02*
X61616667Y-62509580D01*
X60711905Y-59604819D02*
X60711905Y-58604819D01*
X60711905Y-58604819D02*
X60950000Y-58604819D01*
X60950000Y-58604819D02*
X61092857Y-58652438D01*
X61092857Y-58652438D02*
X61188095Y-58747676D01*
X61188095Y-58747676D02*
X61235714Y-58842914D01*
X61235714Y-58842914D02*
X61283333Y-59033390D01*
X61283333Y-59033390D02*
X61283333Y-59176247D01*
X61283333Y-59176247D02*
X61235714Y-59366723D01*
X61235714Y-59366723D02*
X61188095Y-59461961D01*
X61188095Y-59461961D02*
X61092857Y-59557200D01*
X61092857Y-59557200D02*
X60950000Y-59604819D01*
X60950000Y-59604819D02*
X60711905Y-59604819D01*
X61664286Y-58700057D02*
X61711905Y-58652438D01*
X61711905Y-58652438D02*
X61807143Y-58604819D01*
X61807143Y-58604819D02*
X62045238Y-58604819D01*
X62045238Y-58604819D02*
X62140476Y-58652438D01*
X62140476Y-58652438D02*
X62188095Y-58700057D01*
X62188095Y-58700057D02*
X62235714Y-58795295D01*
X62235714Y-58795295D02*
X62235714Y-58890533D01*
X62235714Y-58890533D02*
X62188095Y-59033390D01*
X62188095Y-59033390D02*
X61616667Y-59604819D01*
X61616667Y-59604819D02*
X62235714Y-59604819D01*
X60511905Y-56604819D02*
X60511905Y-55604819D01*
X60511905Y-55604819D02*
X60750000Y-55604819D01*
X60750000Y-55604819D02*
X60892857Y-55652438D01*
X60892857Y-55652438D02*
X60988095Y-55747676D01*
X60988095Y-55747676D02*
X61035714Y-55842914D01*
X61035714Y-55842914D02*
X61083333Y-56033390D01*
X61083333Y-56033390D02*
X61083333Y-56176247D01*
X61083333Y-56176247D02*
X61035714Y-56366723D01*
X61035714Y-56366723D02*
X60988095Y-56461961D01*
X60988095Y-56461961D02*
X60892857Y-56557200D01*
X60892857Y-56557200D02*
X60750000Y-56604819D01*
X60750000Y-56604819D02*
X60511905Y-56604819D01*
X62035714Y-56604819D02*
X61464286Y-56604819D01*
X61750000Y-56604819D02*
X61750000Y-55604819D01*
X61750000Y-55604819D02*
X61654762Y-55747676D01*
X61654762Y-55747676D02*
X61559524Y-55842914D01*
X61559524Y-55842914D02*
X61464286Y-55890533D01*
X72846874Y-65267179D02*
X72846874Y-65334523D01*
X72846874Y-65334523D02*
X72779531Y-65469210D01*
X72779531Y-65469210D02*
X72712187Y-65536553D01*
X72712187Y-65536553D02*
X72577500Y-65603897D01*
X72577500Y-65603897D02*
X72442813Y-65603897D01*
X72442813Y-65603897D02*
X72341798Y-65570225D01*
X72341798Y-65570225D02*
X72173439Y-65469210D01*
X72173439Y-65469210D02*
X72072424Y-65368194D01*
X72072424Y-65368194D02*
X71971409Y-65199836D01*
X71971409Y-65199836D02*
X71937737Y-65098820D01*
X71937737Y-65098820D02*
X71937737Y-64964133D01*
X71937737Y-64964133D02*
X72005080Y-64829446D01*
X72005080Y-64829446D02*
X72072424Y-64762103D01*
X72072424Y-64762103D02*
X72207111Y-64694759D01*
X72207111Y-64694759D02*
X72274454Y-64694759D01*
X73217264Y-65031477D02*
X72510157Y-64324370D01*
X72846874Y-64661087D02*
X73250935Y-64257026D01*
X73621325Y-64627416D02*
X72914218Y-63920309D01*
X73958042Y-64290698D02*
X73250935Y-63583591D01*
X74294759Y-63953981D02*
X73587652Y-63246874D01*
X73587652Y-63246874D02*
X73857026Y-62977500D01*
X73857026Y-62977500D02*
X73958042Y-62943829D01*
X73958042Y-62943829D02*
X74025385Y-62943829D01*
X74025385Y-62943829D02*
X74126400Y-62977500D01*
X74126400Y-62977500D02*
X74227416Y-63078516D01*
X74227416Y-63078516D02*
X74261087Y-63179531D01*
X74261087Y-63179531D02*
X74261087Y-63246874D01*
X74261087Y-63246874D02*
X74227416Y-63347890D01*
X74227416Y-63347890D02*
X73958042Y-63617264D01*
X75372255Y-62876485D02*
X74968194Y-63280546D01*
X75170225Y-63078516D02*
X74463118Y-62371409D01*
X74463118Y-62371409D02*
X74496790Y-62539768D01*
X74496790Y-62539768D02*
X74496790Y-62674455D01*
X74496790Y-62674455D02*
X74463118Y-62775470D01*
X76924350Y-61560051D02*
X76924350Y-61627395D01*
X76924350Y-61627395D02*
X76857006Y-61762082D01*
X76857006Y-61762082D02*
X76789663Y-61829425D01*
X76789663Y-61829425D02*
X76654976Y-61896769D01*
X76654976Y-61896769D02*
X76520289Y-61896769D01*
X76520289Y-61896769D02*
X76419274Y-61863097D01*
X76419274Y-61863097D02*
X76250915Y-61762082D01*
X76250915Y-61762082D02*
X76149900Y-61661067D01*
X76149900Y-61661067D02*
X76048884Y-61492708D01*
X76048884Y-61492708D02*
X76015213Y-61391693D01*
X76015213Y-61391693D02*
X76015213Y-61257006D01*
X76015213Y-61257006D02*
X76082556Y-61122319D01*
X76082556Y-61122319D02*
X76149900Y-61054975D01*
X76149900Y-61054975D02*
X76284587Y-60987632D01*
X76284587Y-60987632D02*
X76351930Y-60987632D01*
X76991693Y-60819273D02*
X76890678Y-60852945D01*
X76890678Y-60852945D02*
X76823335Y-60852945D01*
X76823335Y-60852945D02*
X76722319Y-60819273D01*
X76722319Y-60819273D02*
X76688648Y-60785601D01*
X76688648Y-60785601D02*
X76654976Y-60684586D01*
X76654976Y-60684586D02*
X76654976Y-60617242D01*
X76654976Y-60617242D02*
X76688648Y-60516227D01*
X76688648Y-60516227D02*
X76823335Y-60381540D01*
X76823335Y-60381540D02*
X76924350Y-60347868D01*
X76924350Y-60347868D02*
X76991693Y-60347868D01*
X76991693Y-60347868D02*
X77092709Y-60381540D01*
X77092709Y-60381540D02*
X77126380Y-60415212D01*
X77126380Y-60415212D02*
X77160052Y-60516227D01*
X77160052Y-60516227D02*
X77160052Y-60583571D01*
X77160052Y-60583571D02*
X77126380Y-60684586D01*
X77126380Y-60684586D02*
X76991693Y-60819273D01*
X76991693Y-60819273D02*
X76958022Y-60920288D01*
X76958022Y-60920288D02*
X76958022Y-60987632D01*
X76958022Y-60987632D02*
X76991693Y-61088647D01*
X76991693Y-61088647D02*
X77126380Y-61223334D01*
X77126380Y-61223334D02*
X77227396Y-61257006D01*
X77227396Y-61257006D02*
X77294739Y-61257006D01*
X77294739Y-61257006D02*
X77395754Y-61223334D01*
X77395754Y-61223334D02*
X77530441Y-61088647D01*
X77530441Y-61088647D02*
X77564113Y-60987632D01*
X77564113Y-60987632D02*
X77564113Y-60920288D01*
X77564113Y-60920288D02*
X77530441Y-60819273D01*
X77530441Y-60819273D02*
X77395754Y-60684586D01*
X77395754Y-60684586D02*
X77294739Y-60650914D01*
X77294739Y-60650914D02*
X77227396Y-60650914D01*
X77227396Y-60650914D02*
X77126380Y-60684586D01*
X84879580Y-57516666D02*
X84927200Y-57564285D01*
X84927200Y-57564285D02*
X84974819Y-57707142D01*
X84974819Y-57707142D02*
X84974819Y-57802380D01*
X84974819Y-57802380D02*
X84927200Y-57945237D01*
X84927200Y-57945237D02*
X84831961Y-58040475D01*
X84831961Y-58040475D02*
X84736723Y-58088094D01*
X84736723Y-58088094D02*
X84546247Y-58135713D01*
X84546247Y-58135713D02*
X84403390Y-58135713D01*
X84403390Y-58135713D02*
X84212914Y-58088094D01*
X84212914Y-58088094D02*
X84117676Y-58040475D01*
X84117676Y-58040475D02*
X84022438Y-57945237D01*
X84022438Y-57945237D02*
X83974819Y-57802380D01*
X83974819Y-57802380D02*
X83974819Y-57707142D01*
X83974819Y-57707142D02*
X84022438Y-57564285D01*
X84022438Y-57564285D02*
X84070057Y-57516666D01*
X83974819Y-57183332D02*
X83974819Y-56516666D01*
X83974819Y-56516666D02*
X84974819Y-56945237D01*
X73383333Y-76279580D02*
X73335714Y-76327200D01*
X73335714Y-76327200D02*
X73192857Y-76374819D01*
X73192857Y-76374819D02*
X73097619Y-76374819D01*
X73097619Y-76374819D02*
X72954762Y-76327200D01*
X72954762Y-76327200D02*
X72859524Y-76231961D01*
X72859524Y-76231961D02*
X72811905Y-76136723D01*
X72811905Y-76136723D02*
X72764286Y-75946247D01*
X72764286Y-75946247D02*
X72764286Y-75803390D01*
X72764286Y-75803390D02*
X72811905Y-75612914D01*
X72811905Y-75612914D02*
X72859524Y-75517676D01*
X72859524Y-75517676D02*
X72954762Y-75422438D01*
X72954762Y-75422438D02*
X73097619Y-75374819D01*
X73097619Y-75374819D02*
X73192857Y-75374819D01*
X73192857Y-75374819D02*
X73335714Y-75422438D01*
X73335714Y-75422438D02*
X73383333Y-75470057D01*
X74240476Y-75374819D02*
X74050000Y-75374819D01*
X74050000Y-75374819D02*
X73954762Y-75422438D01*
X73954762Y-75422438D02*
X73907143Y-75470057D01*
X73907143Y-75470057D02*
X73811905Y-75612914D01*
X73811905Y-75612914D02*
X73764286Y-75803390D01*
X73764286Y-75803390D02*
X73764286Y-76184342D01*
X73764286Y-76184342D02*
X73811905Y-76279580D01*
X73811905Y-76279580D02*
X73859524Y-76327200D01*
X73859524Y-76327200D02*
X73954762Y-76374819D01*
X73954762Y-76374819D02*
X74145238Y-76374819D01*
X74145238Y-76374819D02*
X74240476Y-76327200D01*
X74240476Y-76327200D02*
X74288095Y-76279580D01*
X74288095Y-76279580D02*
X74335714Y-76184342D01*
X74335714Y-76184342D02*
X74335714Y-75946247D01*
X74335714Y-75946247D02*
X74288095Y-75851009D01*
X74288095Y-75851009D02*
X74240476Y-75803390D01*
X74240476Y-75803390D02*
X74145238Y-75755771D01*
X74145238Y-75755771D02*
X73954762Y-75755771D01*
X73954762Y-75755771D02*
X73859524Y-75803390D01*
X73859524Y-75803390D02*
X73811905Y-75851009D01*
X73811905Y-75851009D02*
X73764286Y-75946247D01*
X73383333Y-78479580D02*
X73335714Y-78527200D01*
X73335714Y-78527200D02*
X73192857Y-78574819D01*
X73192857Y-78574819D02*
X73097619Y-78574819D01*
X73097619Y-78574819D02*
X72954762Y-78527200D01*
X72954762Y-78527200D02*
X72859524Y-78431961D01*
X72859524Y-78431961D02*
X72811905Y-78336723D01*
X72811905Y-78336723D02*
X72764286Y-78146247D01*
X72764286Y-78146247D02*
X72764286Y-78003390D01*
X72764286Y-78003390D02*
X72811905Y-77812914D01*
X72811905Y-77812914D02*
X72859524Y-77717676D01*
X72859524Y-77717676D02*
X72954762Y-77622438D01*
X72954762Y-77622438D02*
X73097619Y-77574819D01*
X73097619Y-77574819D02*
X73192857Y-77574819D01*
X73192857Y-77574819D02*
X73335714Y-77622438D01*
X73335714Y-77622438D02*
X73383333Y-77670057D01*
X74288095Y-77574819D02*
X73811905Y-77574819D01*
X73811905Y-77574819D02*
X73764286Y-78051009D01*
X73764286Y-78051009D02*
X73811905Y-78003390D01*
X73811905Y-78003390D02*
X73907143Y-77955771D01*
X73907143Y-77955771D02*
X74145238Y-77955771D01*
X74145238Y-77955771D02*
X74240476Y-78003390D01*
X74240476Y-78003390D02*
X74288095Y-78051009D01*
X74288095Y-78051009D02*
X74335714Y-78146247D01*
X74335714Y-78146247D02*
X74335714Y-78384342D01*
X74335714Y-78384342D02*
X74288095Y-78479580D01*
X74288095Y-78479580D02*
X74240476Y-78527200D01*
X74240476Y-78527200D02*
X74145238Y-78574819D01*
X74145238Y-78574819D02*
X73907143Y-78574819D01*
X73907143Y-78574819D02*
X73811905Y-78527200D01*
X73811905Y-78527200D02*
X73764286Y-78479580D01*
X98833333Y-61679580D02*
X98785714Y-61727200D01*
X98785714Y-61727200D02*
X98642857Y-61774819D01*
X98642857Y-61774819D02*
X98547619Y-61774819D01*
X98547619Y-61774819D02*
X98404762Y-61727200D01*
X98404762Y-61727200D02*
X98309524Y-61631961D01*
X98309524Y-61631961D02*
X98261905Y-61536723D01*
X98261905Y-61536723D02*
X98214286Y-61346247D01*
X98214286Y-61346247D02*
X98214286Y-61203390D01*
X98214286Y-61203390D02*
X98261905Y-61012914D01*
X98261905Y-61012914D02*
X98309524Y-60917676D01*
X98309524Y-60917676D02*
X98404762Y-60822438D01*
X98404762Y-60822438D02*
X98547619Y-60774819D01*
X98547619Y-60774819D02*
X98642857Y-60774819D01*
X98642857Y-60774819D02*
X98785714Y-60822438D01*
X98785714Y-60822438D02*
X98833333Y-60870057D01*
X99690476Y-61108152D02*
X99690476Y-61774819D01*
X99452381Y-60727200D02*
X99214286Y-61441485D01*
X99214286Y-61441485D02*
X99833333Y-61441485D01*
X97633333Y-66879580D02*
X97585714Y-66927200D01*
X97585714Y-66927200D02*
X97442857Y-66974819D01*
X97442857Y-66974819D02*
X97347619Y-66974819D01*
X97347619Y-66974819D02*
X97204762Y-66927200D01*
X97204762Y-66927200D02*
X97109524Y-66831961D01*
X97109524Y-66831961D02*
X97061905Y-66736723D01*
X97061905Y-66736723D02*
X97014286Y-66546247D01*
X97014286Y-66546247D02*
X97014286Y-66403390D01*
X97014286Y-66403390D02*
X97061905Y-66212914D01*
X97061905Y-66212914D02*
X97109524Y-66117676D01*
X97109524Y-66117676D02*
X97204762Y-66022438D01*
X97204762Y-66022438D02*
X97347619Y-65974819D01*
X97347619Y-65974819D02*
X97442857Y-65974819D01*
X97442857Y-65974819D02*
X97585714Y-66022438D01*
X97585714Y-66022438D02*
X97633333Y-66070057D01*
X97966667Y-65974819D02*
X98585714Y-65974819D01*
X98585714Y-65974819D02*
X98252381Y-66355771D01*
X98252381Y-66355771D02*
X98395238Y-66355771D01*
X98395238Y-66355771D02*
X98490476Y-66403390D01*
X98490476Y-66403390D02*
X98538095Y-66451009D01*
X98538095Y-66451009D02*
X98585714Y-66546247D01*
X98585714Y-66546247D02*
X98585714Y-66784342D01*
X98585714Y-66784342D02*
X98538095Y-66879580D01*
X98538095Y-66879580D02*
X98490476Y-66927200D01*
X98490476Y-66927200D02*
X98395238Y-66974819D01*
X98395238Y-66974819D02*
X98109524Y-66974819D01*
X98109524Y-66974819D02*
X98014286Y-66927200D01*
X98014286Y-66927200D02*
X97966667Y-66879580D01*
X103833333Y-68239580D02*
X103785714Y-68287200D01*
X103785714Y-68287200D02*
X103642857Y-68334819D01*
X103642857Y-68334819D02*
X103547619Y-68334819D01*
X103547619Y-68334819D02*
X103404762Y-68287200D01*
X103404762Y-68287200D02*
X103309524Y-68191961D01*
X103309524Y-68191961D02*
X103261905Y-68096723D01*
X103261905Y-68096723D02*
X103214286Y-67906247D01*
X103214286Y-67906247D02*
X103214286Y-67763390D01*
X103214286Y-67763390D02*
X103261905Y-67572914D01*
X103261905Y-67572914D02*
X103309524Y-67477676D01*
X103309524Y-67477676D02*
X103404762Y-67382438D01*
X103404762Y-67382438D02*
X103547619Y-67334819D01*
X103547619Y-67334819D02*
X103642857Y-67334819D01*
X103642857Y-67334819D02*
X103785714Y-67382438D01*
X103785714Y-67382438D02*
X103833333Y-67430057D01*
X104214286Y-67430057D02*
X104261905Y-67382438D01*
X104261905Y-67382438D02*
X104357143Y-67334819D01*
X104357143Y-67334819D02*
X104595238Y-67334819D01*
X104595238Y-67334819D02*
X104690476Y-67382438D01*
X104690476Y-67382438D02*
X104738095Y-67430057D01*
X104738095Y-67430057D02*
X104785714Y-67525295D01*
X104785714Y-67525295D02*
X104785714Y-67620533D01*
X104785714Y-67620533D02*
X104738095Y-67763390D01*
X104738095Y-67763390D02*
X104166667Y-68334819D01*
X104166667Y-68334819D02*
X104785714Y-68334819D01*
X95233333Y-61679580D02*
X95185714Y-61727200D01*
X95185714Y-61727200D02*
X95042857Y-61774819D01*
X95042857Y-61774819D02*
X94947619Y-61774819D01*
X94947619Y-61774819D02*
X94804762Y-61727200D01*
X94804762Y-61727200D02*
X94709524Y-61631961D01*
X94709524Y-61631961D02*
X94661905Y-61536723D01*
X94661905Y-61536723D02*
X94614286Y-61346247D01*
X94614286Y-61346247D02*
X94614286Y-61203390D01*
X94614286Y-61203390D02*
X94661905Y-61012914D01*
X94661905Y-61012914D02*
X94709524Y-60917676D01*
X94709524Y-60917676D02*
X94804762Y-60822438D01*
X94804762Y-60822438D02*
X94947619Y-60774819D01*
X94947619Y-60774819D02*
X95042857Y-60774819D01*
X95042857Y-60774819D02*
X95185714Y-60822438D01*
X95185714Y-60822438D02*
X95233333Y-60870057D01*
X96185714Y-61774819D02*
X95614286Y-61774819D01*
X95900000Y-61774819D02*
X95900000Y-60774819D01*
X95900000Y-60774819D02*
X95804762Y-60917676D01*
X95804762Y-60917676D02*
X95709524Y-61012914D01*
X95709524Y-61012914D02*
X95614286Y-61060533D01*
D11*
%TO.C,Y2*%
X78250000Y-55650000D02*
X78250000Y-59550000D01*
X78250000Y-59550000D02*
X84800000Y-59550000D01*
X84800000Y-55650000D02*
X78250000Y-55650000D01*
%TO.C,Y1*%
X100550000Y-61750000D02*
X100550000Y-57850000D01*
X100550000Y-57850000D02*
X94000000Y-57850000D01*
X94000000Y-61750000D02*
X100550000Y-61750000D01*
%TO.C,SW1*%
X99650000Y-80675000D02*
X99650000Y-82675000D01*
X100650000Y-79375000D02*
X101100000Y-78925000D01*
X100650000Y-83975000D02*
X101100000Y-84425000D01*
X101100000Y-78925000D02*
X103700000Y-78925000D01*
X101100000Y-84425000D02*
X103700000Y-84425000D01*
X104150000Y-79375000D02*
X103700000Y-78925000D01*
X104150000Y-83975000D02*
X103700000Y-84425000D01*
X105150000Y-80675000D02*
X105150000Y-82675000D01*
%TO.C,RV1*%
X111925000Y-72470000D02*
X114620000Y-72470000D01*
X114620000Y-68080000D02*
X114620000Y-70320000D01*
X114620000Y-65930000D02*
X114620000Y-72470000D01*
X110879000Y-67766000D02*
X110879000Y-70635000D01*
X110879000Y-68080000D02*
X114620000Y-68080000D01*
X110879000Y-70320000D02*
X114620000Y-70320000D01*
X110879000Y-68080000D02*
X110879000Y-70320000D01*
X111925000Y-65930000D02*
X114620000Y-65930000D01*
%TO.C,R14*%
X83027064Y-61535000D02*
X82572936Y-61535000D01*
X83027064Y-60065000D02*
X82572936Y-60065000D01*
%TO.C,R13*%
X91972936Y-66665000D02*
X92427064Y-66665000D01*
X91972936Y-68135000D02*
X92427064Y-68135000D01*
%TO.C,R12*%
X97427064Y-57135000D02*
X96972936Y-57135000D01*
X97427064Y-55665000D02*
X96972936Y-55665000D01*
%TO.C,R11*%
X98865000Y-76172936D02*
X98865000Y-76627064D01*
X100335000Y-76172936D02*
X100335000Y-76627064D01*
%TO.C,R10*%
X105935000Y-76172936D02*
X105935000Y-76627064D01*
X104465000Y-76172936D02*
X104465000Y-76627064D01*
%TO.C,R9*%
X103772936Y-68465000D02*
X104227064Y-68465000D01*
X103772936Y-69935000D02*
X104227064Y-69935000D01*
%TO.C,R8*%
X57427064Y-78065000D02*
X56972936Y-78065000D01*
X57427064Y-79535000D02*
X56972936Y-79535000D01*
%TO.C,R7*%
X57427064Y-76535000D02*
X56972936Y-76535000D01*
X57427064Y-75065000D02*
X56972936Y-75065000D01*
%TO.C,R6*%
X57427064Y-72065000D02*
X56972936Y-72065000D01*
X57427064Y-73535000D02*
X56972936Y-73535000D01*
%TO.C,R5*%
X57427064Y-70535000D02*
X56972936Y-70535000D01*
X57427064Y-69065000D02*
X56972936Y-69065000D01*
%TO.C,R4*%
X57427064Y-67535000D02*
X56972936Y-67535000D01*
X57427064Y-66065000D02*
X56972936Y-66065000D01*
%TO.C,R3*%
X57427064Y-64535000D02*
X56972936Y-64535000D01*
X57427064Y-63065000D02*
X56972936Y-63065000D01*
%TO.C,R2*%
X57427064Y-60065000D02*
X56972936Y-60065000D01*
X57427064Y-61535000D02*
X56972936Y-61535000D01*
%TO.C,R1*%
X57452064Y-57065000D02*
X56997936Y-57065000D01*
X57452064Y-58535000D02*
X56997936Y-58535000D01*
%TO.C,J3*%
X58620000Y-83905000D02*
X61220000Y-83905000D01*
X58620000Y-81245000D02*
X61220000Y-81245000D01*
X58620000Y-83905000D02*
X58620000Y-81245000D01*
X56020000Y-82575000D02*
X56020000Y-81245000D01*
X56020000Y-81245000D02*
X57350000Y-81245000D01*
X61220000Y-83905000D02*
X61220000Y-81245000D01*
%TO.C,J2*%
X70780000Y-81495000D02*
X70780000Y-84155000D01*
X75980000Y-84155000D02*
X74650000Y-84155000D01*
X75980000Y-82825000D02*
X75980000Y-84155000D01*
X73380000Y-81495000D02*
X73380000Y-84155000D01*
X73380000Y-84155000D02*
X70780000Y-84155000D01*
X73380000Y-81495000D02*
X70780000Y-81495000D01*
%TO.C,J1*%
X89750000Y-84130000D02*
X88420000Y-84130000D01*
X87150000Y-84130000D02*
X76930000Y-84130000D01*
X87150000Y-81470000D02*
X76930000Y-81470000D01*
X87150000Y-81470000D02*
X87150000Y-84130000D01*
X76930000Y-81470000D02*
X76930000Y-84130000D01*
X89750000Y-82800000D02*
X89750000Y-84130000D01*
%TO.C,D8*%
X59765000Y-79760000D02*
X62450000Y-79760000D01*
X59765000Y-77840000D02*
X59765000Y-79760000D01*
X62450000Y-77840000D02*
X59765000Y-77840000D01*
%TO.C,D7*%
X59765000Y-76760000D02*
X62450000Y-76760000D01*
X59765000Y-74840000D02*
X59765000Y-76760000D01*
X62450000Y-74840000D02*
X59765000Y-74840000D01*
%TO.C,D6*%
X59765000Y-73760000D02*
X62450000Y-73760000D01*
X59765000Y-71840000D02*
X59765000Y-73760000D01*
X62450000Y-71840000D02*
X59765000Y-71840000D01*
%TO.C,D5*%
X59765000Y-70760000D02*
X62450000Y-70760000D01*
X59765000Y-68840000D02*
X59765000Y-70760000D01*
X62450000Y-68840000D02*
X59765000Y-68840000D01*
%TO.C,D4*%
X59765000Y-67760000D02*
X62450000Y-67760000D01*
X59765000Y-65840000D02*
X59765000Y-67760000D01*
X62450000Y-65840000D02*
X59765000Y-65840000D01*
%TO.C,D3*%
X59765000Y-64760000D02*
X62450000Y-64760000D01*
X59765000Y-62840000D02*
X59765000Y-64760000D01*
X62450000Y-62840000D02*
X59765000Y-62840000D01*
%TO.C,D2*%
X59765000Y-61760000D02*
X62450000Y-61760000D01*
X59765000Y-59840000D02*
X59765000Y-61760000D01*
X62450000Y-59840000D02*
X59765000Y-59840000D01*
%TO.C,D1*%
X59565000Y-58760000D02*
X62250000Y-58760000D01*
X59565000Y-56840000D02*
X59565000Y-58760000D01*
X62250000Y-56840000D02*
X59565000Y-56840000D01*
%TO.C,CHIP1*%
X78800000Y-61973369D02*
X79206586Y-62379955D01*
X85620045Y-69606586D02*
X86026631Y-69200000D01*
X71979955Y-69606586D02*
X71067787Y-70518754D01*
X78800000Y-76426631D02*
X78393414Y-76020045D01*
X86026631Y-69200000D02*
X85620045Y-68793414D01*
X71979955Y-68793414D02*
X71573369Y-69200000D01*
X79206586Y-76020045D02*
X78800000Y-76426631D01*
X78393414Y-62379955D02*
X78800000Y-61973369D01*
X71573369Y-69200000D02*
X71979955Y-69606586D01*
%TO.C,C8*%
X75265010Y-59295543D02*
X74895543Y-59665010D01*
X76304457Y-60334990D02*
X75934990Y-60704457D01*
%TO.C,C7*%
X86935000Y-57611252D02*
X86935000Y-57088748D01*
X85465000Y-57611252D02*
X85465000Y-57088748D01*
%TO.C,C6*%
X73288748Y-76865000D02*
X73811252Y-76865000D01*
X73288748Y-78335000D02*
X73811252Y-78335000D01*
%TO.C,C5*%
X73288748Y-79065000D02*
X73811252Y-79065000D01*
X73288748Y-80535000D02*
X73811252Y-80535000D01*
%TO.C,C4*%
X98738748Y-63735000D02*
X99261252Y-63735000D01*
X98738748Y-62265000D02*
X99261252Y-62265000D01*
%TO.C,C3*%
X97538748Y-68935000D02*
X98061252Y-68935000D01*
X97538748Y-67465000D02*
X98061252Y-67465000D01*
%TO.C,C2*%
X104261252Y-65465000D02*
X103738748Y-65465000D01*
X104261252Y-66935000D02*
X103738748Y-66935000D01*
%TO.C,C1*%
X95138748Y-63735000D02*
X95661252Y-63735000D01*
X95138748Y-62265000D02*
X95661252Y-62265000D01*
%TD*%
M02*
